<mxfile host="app.diagrams.net" modified="2023-09-22T09:29:27.682Z" agent="Mozilla/5.0 (Windows NT 10.0; Win64; x64) AppleWebKit/537.36 (KHTML, like Gecko) Chrome/116.0.0.0 Safari/537.36" etag="417euL03TVFscxG0yNo_" version="21.6.7" type="github">
  <diagram name="第 1 页" id="DumP11DfZ2SIVqox3f8w">
    <mxGraphModel dx="1260" dy="674" grid="1" gridSize="10" guides="1" tooltips="1" connect="1" arrows="1" fold="1" page="1" pageScale="1" pageWidth="827" pageHeight="1169" math="0" shadow="0">
      <root>
        <mxCell id="0" />
        <mxCell id="1" parent="0" />
        <mxCell id="IIdGQf1pMwcohR-izoeh-300" value="" style="rounded=1;whiteSpace=wrap;html=1;perimeterSpacing=1;strokeColor=#ffcccc;" vertex="1" parent="1">
          <mxGeometry x="872" y="729" width="232" height="200" as="geometry" />
        </mxCell>
        <mxCell id="IIdGQf1pMwcohR-izoeh-202" value="" style="rounded=1;whiteSpace=wrap;html=1;perimeterSpacing=1;strokeColor=#ffcccc;" vertex="1" parent="1">
          <mxGeometry x="297" y="727.5" width="456" height="202.5" as="geometry" />
        </mxCell>
        <mxCell id="IIdGQf1pMwcohR-izoeh-43" value="" style="rounded=0;whiteSpace=wrap;html=1;fillColor=#eeeeee;strokeColor=#36393d;dashed=1;" vertex="1" parent="1">
          <mxGeometry x="294" y="360" width="326" height="220" as="geometry" />
        </mxCell>
        <mxCell id="IIdGQf1pMwcohR-izoeh-1" value="" style="shape=cube;whiteSpace=wrap;html=1;boundedLbl=1;backgroundOutline=1;darkOpacity=0.05;darkOpacity2=0.1;size=10;fillColor=#dae8fc;strokeColor=#6c8ebf;" vertex="1" parent="1">
          <mxGeometry x="20" y="320" width="80" height="70" as="geometry" />
        </mxCell>
        <mxCell id="IIdGQf1pMwcohR-izoeh-2" value="&lt;font style=&quot;font-size: 11px;&quot;&gt;semantic &lt;br&gt;feature &lt;b&gt;&lt;i&gt;x&lt;/i&gt;&lt;/b&gt;&amp;nbsp;&lt;/font&gt;" style="text;html=1;align=center;verticalAlign=middle;resizable=0;points=[];autosize=1;strokeColor=none;fillColor=none;fontSize=7;" vertex="1" parent="1">
          <mxGeometry x="30" y="340" width="70" height="40" as="geometry" />
        </mxCell>
        <mxCell id="IIdGQf1pMwcohR-izoeh-3" value="" style="shape=cube;whiteSpace=wrap;html=1;boundedLbl=1;backgroundOutline=1;darkOpacity=0.05;darkOpacity2=0.1;size=10;fillColor=#dae8fc;strokeColor=#6c8ebf;" vertex="1" parent="1">
          <mxGeometry x="20" y="540" width="80" height="70" as="geometry" />
        </mxCell>
        <mxCell id="IIdGQf1pMwcohR-izoeh-4" value="&lt;font style=&quot;font-size: 11px;&quot;&gt;semantic &lt;br&gt;feature &lt;b&gt;&lt;i&gt;y&lt;/i&gt;&lt;/b&gt;&amp;nbsp;&lt;/font&gt;" style="text;html=1;align=center;verticalAlign=middle;resizable=0;points=[];autosize=1;strokeColor=none;fillColor=none;fontSize=7;" vertex="1" parent="1">
          <mxGeometry x="30" y="560" width="70" height="40" as="geometry" />
        </mxCell>
        <mxCell id="IIdGQf1pMwcohR-izoeh-5" value="" style="endArrow=classic;html=1;rounded=0;exitX=0;exitY=0;exitDx=80;exitDy=40;exitPerimeter=0;entryX=0;entryY=0.5;entryDx=0;entryDy=0;" edge="1" parent="1" source="IIdGQf1pMwcohR-izoeh-1" target="IIdGQf1pMwcohR-izoeh-6">
          <mxGeometry width="50" height="50" relative="1" as="geometry">
            <mxPoint x="290" y="420" as="sourcePoint" />
            <mxPoint x="170" y="360" as="targetPoint" />
          </mxGeometry>
        </mxCell>
        <mxCell id="IIdGQf1pMwcohR-izoeh-6" value="Overlap Patch Embeddings" style="rounded=1;whiteSpace=wrap;html=1;fillColor=#d5e8d4;gradientColor=#97d077;strokeColor=#82b366;" vertex="1" parent="1">
          <mxGeometry x="150" y="340" width="100" height="40" as="geometry" />
        </mxCell>
        <mxCell id="IIdGQf1pMwcohR-izoeh-8" value="" style="endArrow=classic;html=1;rounded=0;exitX=0;exitY=0;exitDx=80;exitDy=40;exitPerimeter=0;entryX=0;entryY=0.5;entryDx=0;entryDy=0;" edge="1" parent="1" source="IIdGQf1pMwcohR-izoeh-3" target="IIdGQf1pMwcohR-izoeh-11">
          <mxGeometry width="50" height="50" relative="1" as="geometry">
            <mxPoint x="103.72" y="580.1799999999998" as="sourcePoint" />
            <mxPoint x="170" y="580" as="targetPoint" />
          </mxGeometry>
        </mxCell>
        <mxCell id="IIdGQf1pMwcohR-izoeh-11" value="Overlap Patch Embeddings" style="rounded=1;whiteSpace=wrap;html=1;fillColor=#d5e8d4;gradientColor=#97d077;strokeColor=#82b366;" vertex="1" parent="1">
          <mxGeometry x="150" y="560" width="100" height="40" as="geometry" />
        </mxCell>
        <mxCell id="IIdGQf1pMwcohR-izoeh-13" value="" style="endArrow=classic;html=1;rounded=0;exitX=0.5;exitY=1;exitDx=0;exitDy=0;entryX=0.502;entryY=-0.044;entryDx=0;entryDy=0;entryPerimeter=0;" edge="1" parent="1" source="IIdGQf1pMwcohR-izoeh-6" target="IIdGQf1pMwcohR-izoeh-15">
          <mxGeometry width="50" height="50" relative="1" as="geometry">
            <mxPoint x="290" y="410" as="sourcePoint" />
            <mxPoint x="200" y="400" as="targetPoint" />
          </mxGeometry>
        </mxCell>
        <mxCell id="IIdGQf1pMwcohR-izoeh-14" value="" style="endArrow=classic;html=1;rounded=0;exitX=0.5;exitY=0;exitDx=0;exitDy=0;entryX=0.5;entryY=1;entryDx=0;entryDy=0;" edge="1" parent="1" source="IIdGQf1pMwcohR-izoeh-11" target="IIdGQf1pMwcohR-izoeh-27">
          <mxGeometry width="50" height="50" relative="1" as="geometry">
            <mxPoint x="210" y="443" as="sourcePoint" />
            <mxPoint x="200" y="543" as="targetPoint" />
          </mxGeometry>
        </mxCell>
        <mxCell id="IIdGQf1pMwcohR-izoeh-15" value="" style="rounded=0;whiteSpace=wrap;html=1;strokeColor=#393838;dashed=1;movable=1;resizable=1;rotatable=1;deletable=1;editable=1;locked=0;connectable=1;" vertex="1" parent="1">
          <mxGeometry x="135" y="410" width="130" height="40" as="geometry" />
        </mxCell>
        <mxCell id="IIdGQf1pMwcohR-izoeh-16" value="" style="shape=cube;whiteSpace=wrap;html=1;boundedLbl=1;backgroundOutline=1;darkOpacity=0.05;darkOpacity2=0.1;rotation=90;size=20;fillColor=#f5f5f5;strokeColor=#666666;fontColor=#333333;movable=1;resizable=1;rotatable=1;deletable=1;editable=1;locked=0;connectable=1;" vertex="1" parent="1">
          <mxGeometry x="145" y="413.5" width="30" height="33" as="geometry" />
        </mxCell>
        <mxCell id="IIdGQf1pMwcohR-izoeh-17" value="" style="shape=cube;whiteSpace=wrap;html=1;boundedLbl=1;backgroundOutline=1;darkOpacity=0.05;darkOpacity2=0.1;rotation=90;size=20;fillColor=#f5f5f5;strokeColor=#666666;fontColor=#333333;movable=1;resizable=1;rotatable=1;deletable=1;editable=1;locked=0;connectable=1;" vertex="1" parent="1">
          <mxGeometry x="165" y="413.5" width="30" height="33" as="geometry" />
        </mxCell>
        <mxCell id="IIdGQf1pMwcohR-izoeh-18" value="" style="shape=cube;whiteSpace=wrap;html=1;boundedLbl=1;backgroundOutline=1;darkOpacity=0.05;darkOpacity2=0.1;rotation=90;size=20;fillColor=#f5f5f5;strokeColor=#666666;fontColor=#333333;movable=1;resizable=1;rotatable=1;deletable=1;editable=1;locked=0;connectable=1;" vertex="1" parent="1">
          <mxGeometry x="205" y="413.5" width="30" height="33" as="geometry" />
        </mxCell>
        <mxCell id="IIdGQf1pMwcohR-izoeh-19" value="" style="shape=cube;whiteSpace=wrap;html=1;boundedLbl=1;backgroundOutline=1;darkOpacity=0.05;darkOpacity2=0.1;rotation=90;size=20;fillColor=#f5f5f5;strokeColor=#666666;fontColor=#333333;movable=1;resizable=1;rotatable=1;deletable=1;editable=1;locked=0;connectable=1;" vertex="1" parent="1">
          <mxGeometry x="225" y="413.5" width="30" height="33" as="geometry" />
        </mxCell>
        <mxCell id="IIdGQf1pMwcohR-izoeh-20" value="..." style="text;html=1;align=center;verticalAlign=middle;resizable=1;points=[];autosize=1;strokeColor=none;fillColor=none;movable=1;rotatable=1;deletable=1;editable=1;locked=0;connectable=1;" vertex="1" parent="1">
          <mxGeometry x="180" y="416.5" width="30" height="30" as="geometry" />
        </mxCell>
        <mxCell id="IIdGQf1pMwcohR-izoeh-27" value="" style="rounded=0;whiteSpace=wrap;html=1;strokeColor=#393838;dashed=1;movable=1;resizable=1;rotatable=1;deletable=1;editable=1;locked=0;connectable=1;" vertex="1" parent="1">
          <mxGeometry x="135" y="490" width="130" height="40" as="geometry" />
        </mxCell>
        <mxCell id="IIdGQf1pMwcohR-izoeh-28" value="" style="shape=cube;whiteSpace=wrap;html=1;boundedLbl=1;backgroundOutline=1;darkOpacity=0.05;darkOpacity2=0.1;rotation=90;size=20;fillColor=#f5f5f5;strokeColor=#666666;fontColor=#333333;movable=1;resizable=1;rotatable=1;deletable=1;editable=1;locked=0;connectable=1;" vertex="1" parent="1">
          <mxGeometry x="145" y="493.5" width="30" height="33" as="geometry" />
        </mxCell>
        <mxCell id="IIdGQf1pMwcohR-izoeh-29" value="" style="shape=cube;whiteSpace=wrap;html=1;boundedLbl=1;backgroundOutline=1;darkOpacity=0.05;darkOpacity2=0.1;rotation=90;size=20;fillColor=#f5f5f5;strokeColor=#666666;fontColor=#333333;movable=1;resizable=1;rotatable=1;deletable=1;editable=1;locked=0;connectable=1;" vertex="1" parent="1">
          <mxGeometry x="165" y="493.5" width="30" height="33" as="geometry" />
        </mxCell>
        <mxCell id="IIdGQf1pMwcohR-izoeh-30" value="" style="shape=cube;whiteSpace=wrap;html=1;boundedLbl=1;backgroundOutline=1;darkOpacity=0.05;darkOpacity2=0.1;rotation=90;size=20;fillColor=#f5f5f5;strokeColor=#666666;fontColor=#333333;movable=1;resizable=1;rotatable=1;deletable=1;editable=1;locked=0;connectable=1;" vertex="1" parent="1">
          <mxGeometry x="205" y="493.5" width="30" height="33" as="geometry" />
        </mxCell>
        <mxCell id="IIdGQf1pMwcohR-izoeh-31" value="" style="shape=cube;whiteSpace=wrap;html=1;boundedLbl=1;backgroundOutline=1;darkOpacity=0.05;darkOpacity2=0.1;rotation=90;size=20;fillColor=#f5f5f5;strokeColor=#666666;fontColor=#333333;movable=1;resizable=1;rotatable=1;deletable=1;editable=1;locked=0;connectable=1;" vertex="1" parent="1">
          <mxGeometry x="225" y="493.5" width="30" height="33" as="geometry" />
        </mxCell>
        <mxCell id="IIdGQf1pMwcohR-izoeh-32" value="..." style="text;html=1;align=center;verticalAlign=middle;resizable=1;points=[];autosize=1;strokeColor=none;fillColor=none;movable=1;rotatable=1;deletable=1;editable=1;locked=0;connectable=1;" vertex="1" parent="1">
          <mxGeometry x="180" y="496.5" width="30" height="30" as="geometry" />
        </mxCell>
        <mxCell id="IIdGQf1pMwcohR-izoeh-33" value="Token &lt;b&gt;T&lt;/b&gt;&lt;sub&gt;&lt;b&gt;x&lt;/b&gt;&lt;/sub&gt;" style="text;html=1;align=center;verticalAlign=middle;resizable=0;points=[];autosize=1;strokeColor=none;fillColor=none;" vertex="1" parent="1">
          <mxGeometry x="195" y="388" width="70" height="30" as="geometry" />
        </mxCell>
        <mxCell id="IIdGQf1pMwcohR-izoeh-34" value="Token &lt;b&gt;T&lt;/b&gt;&lt;span style=&quot;font-size: 10px;&quot;&gt;&lt;sub&gt;&lt;b&gt;y&lt;/b&gt;&lt;/sub&gt;&lt;/span&gt;" style="text;html=1;align=center;verticalAlign=middle;resizable=0;points=[];autosize=1;strokeColor=none;fillColor=none;" vertex="1" parent="1">
          <mxGeometry x="195" y="526.5" width="70" height="30" as="geometry" />
        </mxCell>
        <mxCell id="IIdGQf1pMwcohR-izoeh-36" value="" style="edgeStyle=elbowEdgeStyle;endArrow=classic;html=1;rounded=0;endSize=8;startSize=8;exitX=1;exitY=0.5;exitDx=0;exitDy=0;entryX=0;entryY=0.5;entryDx=0;entryDy=0;" edge="1" parent="1" source="IIdGQf1pMwcohR-izoeh-15" target="IIdGQf1pMwcohR-izoeh-38">
          <mxGeometry width="50" height="50" relative="1" as="geometry">
            <mxPoint x="360" y="390" as="sourcePoint" />
            <mxPoint x="310" y="470" as="targetPoint" />
          </mxGeometry>
        </mxCell>
        <mxCell id="IIdGQf1pMwcohR-izoeh-37" value="" style="edgeStyle=elbowEdgeStyle;endArrow=classic;html=1;rounded=0;endSize=8;startSize=8;exitX=1;exitY=0.5;exitDx=0;exitDy=0;entryX=0;entryY=0.5;entryDx=0;entryDy=0;" edge="1" parent="1" source="IIdGQf1pMwcohR-izoeh-27" target="IIdGQf1pMwcohR-izoeh-38">
          <mxGeometry width="50" height="50" relative="1" as="geometry">
            <mxPoint x="275" y="440" as="sourcePoint" />
            <mxPoint x="310" y="470" as="targetPoint" />
          </mxGeometry>
        </mxCell>
        <mxCell id="IIdGQf1pMwcohR-izoeh-38" value="Cross-temporal Semantic Enhancement Encoder" style="rounded=1;whiteSpace=wrap;html=1;fillColor=#ffcccc;strokeColor=#36393d;" vertex="1" parent="1">
          <mxGeometry x="310" y="450" width="130" height="50" as="geometry" />
        </mxCell>
        <mxCell id="IIdGQf1pMwcohR-izoeh-39" value="" style="edgeStyle=elbowEdgeStyle;endArrow=classic;html=1;rounded=0;endSize=8;startSize=8;exitX=1;exitY=0.5;exitDx=0;exitDy=0;entryX=0.54;entryY=0.136;entryDx=0;entryDy=0;entryPerimeter=0;" edge="1" parent="1" source="IIdGQf1pMwcohR-izoeh-38" target="IIdGQf1pMwcohR-izoeh-43">
          <mxGeometry width="50" height="50" relative="1" as="geometry">
            <mxPoint x="275" y="440" as="sourcePoint" />
            <mxPoint x="470" y="430" as="targetPoint" />
          </mxGeometry>
        </mxCell>
        <mxCell id="IIdGQf1pMwcohR-izoeh-40" value="" style="edgeStyle=elbowEdgeStyle;endArrow=classic;html=1;rounded=0;endSize=8;startSize=8;exitX=1;exitY=0.5;exitDx=0;exitDy=0;entryX=0;entryY=0.5;entryDx=0;entryDy=0;" edge="1" parent="1" source="IIdGQf1pMwcohR-izoeh-38" target="IIdGQf1pMwcohR-izoeh-42">
          <mxGeometry width="50" height="50" relative="1" as="geometry">
            <mxPoint x="450" y="480" as="sourcePoint" />
            <mxPoint x="470" y="510" as="targetPoint" />
          </mxGeometry>
        </mxCell>
        <mxCell id="IIdGQf1pMwcohR-izoeh-41" value="Transformer&lt;br&gt;Decoder" style="rounded=1;whiteSpace=wrap;html=1;fillColor=#f9f7ed;strokeColor=#36393d;" vertex="1" parent="1">
          <mxGeometry x="470" y="373.5" width="120" height="40" as="geometry" />
        </mxCell>
        <mxCell id="IIdGQf1pMwcohR-izoeh-42" value="Transformer&lt;br&gt;Decoder" style="rounded=1;whiteSpace=wrap;html=1;fillColor=#f9f7ed;strokeColor=#36393d;" vertex="1" parent="1">
          <mxGeometry x="470" y="526.5" width="120" height="40" as="geometry" />
        </mxCell>
        <mxCell id="IIdGQf1pMwcohR-izoeh-46" value="" style="edgeStyle=elbowEdgeStyle;elbow=vertical;endArrow=classic;html=1;curved=0;rounded=0;endSize=8;startSize=8;entryX=0.473;entryY=0.013;entryDx=0;entryDy=0;entryPerimeter=0;" edge="1" parent="1" target="IIdGQf1pMwcohR-izoeh-41">
          <mxGeometry width="50" height="50" relative="1" as="geometry">
            <mxPoint x="50" y="320" as="sourcePoint" />
            <mxPoint x="100" y="270" as="targetPoint" />
            <Array as="points">
              <mxPoint x="280" y="310" />
            </Array>
          </mxGeometry>
        </mxCell>
        <mxCell id="IIdGQf1pMwcohR-izoeh-47" value="" style="edgeStyle=elbowEdgeStyle;elbow=vertical;endArrow=classic;html=1;curved=0;rounded=0;endSize=8;startSize=8;entryX=0.5;entryY=1;entryDx=0;entryDy=0;exitX=0;exitY=0;exitDx=45;exitDy=70;exitPerimeter=0;" edge="1" parent="1" source="IIdGQf1pMwcohR-izoeh-3" target="IIdGQf1pMwcohR-izoeh-42">
          <mxGeometry width="50" height="50" relative="1" as="geometry">
            <mxPoint x="50" y="566.5" as="sourcePoint" />
            <mxPoint x="527" y="653.5" as="targetPoint" />
            <Array as="points">
              <mxPoint x="300" y="620" />
            </Array>
          </mxGeometry>
        </mxCell>
        <mxCell id="IIdGQf1pMwcohR-izoeh-49" value="" style="shape=cube;whiteSpace=wrap;html=1;boundedLbl=1;backgroundOutline=1;darkOpacity=0.05;darkOpacity2=0.1;size=10;fillColor=#aecdf9;strokeColor=#6c8ebf;" vertex="1" parent="1">
          <mxGeometry x="637.5" y="360" width="80" height="70" as="geometry" />
        </mxCell>
        <mxCell id="IIdGQf1pMwcohR-izoeh-50" value="" style="shape=cube;whiteSpace=wrap;html=1;boundedLbl=1;backgroundOutline=1;darkOpacity=0.05;darkOpacity2=0.1;size=10;fillColor=#aecdf9;strokeColor=#6c8ebf;" vertex="1" parent="1">
          <mxGeometry x="640" y="514" width="80" height="70" as="geometry" />
        </mxCell>
        <mxCell id="IIdGQf1pMwcohR-izoeh-51" value="" style="endArrow=classic;html=1;rounded=0;exitX=1;exitY=0.5;exitDx=0;exitDy=0;entryX=-0.015;entryY=0.474;entryDx=0;entryDy=0;entryPerimeter=0;" edge="1" parent="1" source="IIdGQf1pMwcohR-izoeh-41" target="IIdGQf1pMwcohR-izoeh-49">
          <mxGeometry width="50" height="50" relative="1" as="geometry">
            <mxPoint x="460" y="400" as="sourcePoint" />
            <mxPoint x="510" y="350" as="targetPoint" />
          </mxGeometry>
        </mxCell>
        <mxCell id="IIdGQf1pMwcohR-izoeh-52" value="" style="endArrow=classic;html=1;rounded=0;exitX=1;exitY=0.5;exitDx=0;exitDy=0;entryX=-0.015;entryY=0.471;entryDx=0;entryDy=0;entryPerimeter=0;" edge="1" parent="1" source="IIdGQf1pMwcohR-izoeh-42" target="IIdGQf1pMwcohR-izoeh-50">
          <mxGeometry width="50" height="50" relative="1" as="geometry">
            <mxPoint x="600" y="437" as="sourcePoint" />
            <mxPoint x="630" y="510" as="targetPoint" />
          </mxGeometry>
        </mxCell>
        <mxCell id="IIdGQf1pMwcohR-izoeh-54" value="&lt;font style=&quot;font-size: 11px;&quot;&gt;semantic &lt;br&gt;feature &lt;i&gt;&lt;b&gt;x&lt;sub&gt;e&lt;/sub&gt;&lt;/b&gt;&lt;/i&gt;&amp;nbsp;&lt;/font&gt;" style="text;html=1;align=center;verticalAlign=middle;resizable=0;points=[];autosize=1;strokeColor=none;fillColor=none;fontSize=7;" vertex="1" parent="1">
          <mxGeometry x="642.5" y="373.5" width="80" height="50" as="geometry" />
        </mxCell>
        <mxCell id="IIdGQf1pMwcohR-izoeh-57" value="&lt;font style=&quot;font-size: 11px;&quot;&gt;semantic &lt;br&gt;feature &lt;b&gt;&lt;i&gt;y&lt;/i&gt;&lt;/b&gt;&lt;i&gt;&lt;b&gt;&lt;sub&gt;e&lt;/sub&gt;&lt;/b&gt;&lt;/i&gt;&amp;nbsp;&lt;/font&gt;" style="text;html=1;align=center;verticalAlign=middle;resizable=0;points=[];autosize=1;strokeColor=none;fillColor=none;fontSize=7;" vertex="1" parent="1">
          <mxGeometry x="645" y="527.5" width="80" height="50" as="geometry" />
        </mxCell>
        <mxCell id="IIdGQf1pMwcohR-izoeh-58" value="" style="endArrow=classic;html=1;rounded=0;exitX=0;exitY=0;exitDx=45;exitDy=70;exitPerimeter=0;entryX=0.471;entryY=-0.002;entryDx=0;entryDy=0;entryPerimeter=0;" edge="1" parent="1" target="IIdGQf1pMwcohR-izoeh-62">
          <mxGeometry width="50" height="50" relative="1" as="geometry">
            <mxPoint x="679.75" y="430" as="sourcePoint" />
            <mxPoint x="680" y="450" as="targetPoint" />
          </mxGeometry>
        </mxCell>
        <mxCell id="IIdGQf1pMwcohR-izoeh-60" value="" style="endArrow=classic;html=1;rounded=0;exitX=0.501;exitY=0.008;exitDx=0;exitDy=0;exitPerimeter=0;entryX=0.47;entryY=1.011;entryDx=0;entryDy=0;entryPerimeter=0;" edge="1" parent="1" source="IIdGQf1pMwcohR-izoeh-50" target="IIdGQf1pMwcohR-izoeh-62">
          <mxGeometry width="50" height="50" relative="1" as="geometry">
            <mxPoint x="680" y="510" as="sourcePoint" />
            <mxPoint x="680" y="500" as="targetPoint" />
          </mxGeometry>
        </mxCell>
        <mxCell id="IIdGQf1pMwcohR-izoeh-62" value="Feature Difference" style="rounded=1;whiteSpace=wrap;html=1;fillColor=#fff2cc;strokeColor=#d6b656;" vertex="1" parent="1">
          <mxGeometry x="637.5" y="453.5" width="90" height="40" as="geometry" />
        </mxCell>
        <mxCell id="IIdGQf1pMwcohR-izoeh-64" value="" style="endArrow=classic;html=1;rounded=0;exitX=1;exitY=0.5;exitDx=0;exitDy=0;entryX=0.025;entryY=0.477;entryDx=0;entryDy=0;entryPerimeter=0;" edge="1" parent="1" source="IIdGQf1pMwcohR-izoeh-62" target="IIdGQf1pMwcohR-izoeh-65">
          <mxGeometry width="50" height="50" relative="1" as="geometry">
            <mxPoint x="570" y="500" as="sourcePoint" />
            <mxPoint x="750" y="474" as="targetPoint" />
          </mxGeometry>
        </mxCell>
        <mxCell id="IIdGQf1pMwcohR-izoeh-65" value="" style="shape=cube;whiteSpace=wrap;html=1;boundedLbl=1;backgroundOutline=1;darkOpacity=0.05;darkOpacity2=0.1;size=10;fillColor=#f8cecc;strokeColor=#b85450;" vertex="1" parent="1">
          <mxGeometry x="750" y="440" width="80" height="70" as="geometry" />
        </mxCell>
        <mxCell id="IIdGQf1pMwcohR-izoeh-66" value="&lt;font style=&quot;font-size: 11px;&quot;&gt;final feature &lt;br&gt;map &lt;b&gt;&lt;i&gt;D&lt;sub&gt;i&lt;/sub&gt;&lt;/i&gt;&lt;/b&gt;&lt;/font&gt;" style="text;html=1;align=center;verticalAlign=middle;resizable=0;points=[];autosize=1;strokeColor=none;fillColor=none;fontSize=7;" vertex="1" parent="1">
          <mxGeometry x="750" y="455" width="90" height="50" as="geometry" />
        </mxCell>
        <mxCell id="IIdGQf1pMwcohR-izoeh-92" value="" style="group;aspect=fixed;" vertex="1" connectable="0" parent="1">
          <mxGeometry x="140" y="768.7" width="110" height="33.8" as="geometry" />
        </mxCell>
        <mxCell id="IIdGQf1pMwcohR-izoeh-73" value="" style="rounded=0;whiteSpace=wrap;html=1;strokeColor=#393838;dashed=1;movable=1;resizable=1;rotatable=1;deletable=1;editable=1;locked=0;connectable=1;" vertex="1" parent="IIdGQf1pMwcohR-izoeh-92">
          <mxGeometry width="110" height="33.8" as="geometry" />
        </mxCell>
        <mxCell id="IIdGQf1pMwcohR-izoeh-74" value="" style="shape=cube;whiteSpace=wrap;html=1;boundedLbl=1;backgroundOutline=1;darkOpacity=0.05;darkOpacity2=0.1;rotation=90;size=20;fillColor=#f5f5f5;strokeColor=#666666;fontColor=#333333;movable=1;resizable=1;rotatable=1;deletable=1;editable=1;locked=0;connectable=1;" vertex="1" parent="IIdGQf1pMwcohR-izoeh-92">
          <mxGeometry x="8.461538461538467" y="2.9574999999999987" width="25.384615384615397" height="27.884999999999994" as="geometry" />
        </mxCell>
        <mxCell id="IIdGQf1pMwcohR-izoeh-75" value="" style="shape=cube;whiteSpace=wrap;html=1;boundedLbl=1;backgroundOutline=1;darkOpacity=0.05;darkOpacity2=0.1;rotation=90;size=20;fillColor=#f5f5f5;strokeColor=#666666;fontColor=#333333;movable=1;resizable=1;rotatable=1;deletable=1;editable=1;locked=0;connectable=1;" vertex="1" parent="IIdGQf1pMwcohR-izoeh-92">
          <mxGeometry x="25.384615384615397" y="2.9574999999999987" width="25.384615384615397" height="27.884999999999994" as="geometry" />
        </mxCell>
        <mxCell id="IIdGQf1pMwcohR-izoeh-76" value="" style="shape=cube;whiteSpace=wrap;html=1;boundedLbl=1;backgroundOutline=1;darkOpacity=0.05;darkOpacity2=0.1;rotation=90;size=20;fillColor=#f5f5f5;strokeColor=#666666;fontColor=#333333;movable=1;resizable=1;rotatable=1;deletable=1;editable=1;locked=0;connectable=1;" vertex="1" parent="IIdGQf1pMwcohR-izoeh-92">
          <mxGeometry x="59.230769230769276" y="2.9574999999999987" width="25.384615384615397" height="27.884999999999994" as="geometry" />
        </mxCell>
        <mxCell id="IIdGQf1pMwcohR-izoeh-77" value="" style="shape=cube;whiteSpace=wrap;html=1;boundedLbl=1;backgroundOutline=1;darkOpacity=0.05;darkOpacity2=0.1;rotation=90;size=20;fillColor=#f5f5f5;strokeColor=#666666;fontColor=#333333;movable=1;resizable=1;rotatable=1;deletable=1;editable=1;locked=0;connectable=1;" vertex="1" parent="IIdGQf1pMwcohR-izoeh-92">
          <mxGeometry x="76.15384615384613" y="2.9574999999999987" width="25.384615384615397" height="27.884999999999994" as="geometry" />
        </mxCell>
        <mxCell id="IIdGQf1pMwcohR-izoeh-78" value="..." style="text;html=1;align=center;verticalAlign=middle;resizable=1;points=[];autosize=1;strokeColor=none;fillColor=none;movable=1;rotatable=1;deletable=1;editable=1;locked=0;connectable=1;" vertex="1" parent="IIdGQf1pMwcohR-izoeh-92">
          <mxGeometry x="38.076923076923066" y="5.492499999999998" width="25.384615384615397" height="25.349999999999998" as="geometry" />
        </mxCell>
        <mxCell id="IIdGQf1pMwcohR-izoeh-96" value="&lt;font style=&quot;font-size: 13px;&quot;&gt;Concat&lt;/font&gt;" style="rounded=1;whiteSpace=wrap;html=1;rotation=-90;fillColor=#fad9d5;strokeColor=#ae4132;" vertex="1" parent="1">
          <mxGeometry x="250" y="823.5" width="59" height="23" as="geometry" />
        </mxCell>
        <mxCell id="IIdGQf1pMwcohR-izoeh-98" value="" style="edgeStyle=elbowEdgeStyle;elbow=vertical;endArrow=blockThin;html=1;curved=0;rounded=0;endSize=2;startSize=8;exitX=1;exitY=0.5;exitDx=0;exitDy=0;entryX=1;entryY=0.5;entryDx=0;entryDy=0;endFill=1;" edge="1" parent="1" source="IIdGQf1pMwcohR-izoeh-73" target="IIdGQf1pMwcohR-izoeh-96">
          <mxGeometry width="50" height="50" relative="1" as="geometry">
            <mxPoint x="450" y="790" as="sourcePoint" />
            <mxPoint x="500" y="740" as="targetPoint" />
            <Array as="points">
              <mxPoint x="270" y="790" />
            </Array>
          </mxGeometry>
        </mxCell>
        <mxCell id="IIdGQf1pMwcohR-izoeh-100" value="" style="edgeStyle=elbowEdgeStyle;elbow=vertical;endArrow=blockThin;html=1;curved=0;rounded=0;endSize=2;startSize=8;exitX=1;exitY=0.5;exitDx=0;exitDy=0;entryX=0;entryY=0.5;entryDx=0;entryDy=0;endFill=1;" edge="1" parent="1" target="IIdGQf1pMwcohR-izoeh-96">
          <mxGeometry width="50" height="50" relative="1" as="geometry">
            <mxPoint x="249.99999999999977" y="879.9999999999998" as="sourcePoint" />
            <mxPoint x="300" y="830" as="targetPoint" />
            <Array as="points">
              <mxPoint x="260" y="880" />
            </Array>
          </mxGeometry>
        </mxCell>
        <mxCell id="IIdGQf1pMwcohR-izoeh-101" value="" style="endArrow=blockThin;html=1;rounded=0;exitX=0.5;exitY=1;exitDx=0;exitDy=0;endFill=1;entryX=0.5;entryY=0;entryDx=0;entryDy=0;endSize=2;" edge="1" parent="1" source="IIdGQf1pMwcohR-izoeh-96" target="IIdGQf1pMwcohR-izoeh-102">
          <mxGeometry width="50" height="50" relative="1" as="geometry">
            <mxPoint x="430" y="790" as="sourcePoint" />
            <mxPoint x="310" y="835" as="targetPoint" />
          </mxGeometry>
        </mxCell>
        <mxCell id="IIdGQf1pMwcohR-izoeh-102" value="MSA" style="rounded=1;whiteSpace=wrap;html=1;rotation=-90;fillColor=#dae8fc;strokeColor=#6c8ebf;" vertex="1" parent="1">
          <mxGeometry x="289" y="823.5" width="59" height="23" as="geometry" />
        </mxCell>
        <mxCell id="IIdGQf1pMwcohR-izoeh-103" value="LN" style="rounded=1;whiteSpace=wrap;html=1;rotation=-90;fillColor=#d5e8d4;strokeColor=#82b366;" vertex="1" parent="1">
          <mxGeometry x="320" y="823.5" width="59" height="23" as="geometry" />
        </mxCell>
        <mxCell id="IIdGQf1pMwcohR-izoeh-104" value="" style="endArrow=blockThin;html=1;rounded=0;exitX=0.5;exitY=1;exitDx=0;exitDy=0;entryX=0.5;entryY=0;entryDx=0;entryDy=0;endFill=1;endSize=2;" edge="1" parent="1" source="IIdGQf1pMwcohR-izoeh-102" target="IIdGQf1pMwcohR-izoeh-103">
          <mxGeometry width="50" height="50" relative="1" as="geometry">
            <mxPoint x="291.5" y="845" as="sourcePoint" />
            <mxPoint x="311.5" y="845" as="targetPoint" />
          </mxGeometry>
        </mxCell>
        <mxCell id="IIdGQf1pMwcohR-izoeh-105" value="FFN" style="rounded=1;whiteSpace=wrap;html=1;rotation=-90;fillColor=#ffcc99;strokeColor=#36393d;" vertex="1" parent="1">
          <mxGeometry x="379" y="823.5" width="59" height="23" as="geometry" />
        </mxCell>
        <mxCell id="IIdGQf1pMwcohR-izoeh-106" value="LN" style="rounded=1;whiteSpace=wrap;html=1;rotation=-90;fillColor=#d5e8d4;strokeColor=#82b366;" vertex="1" parent="1">
          <mxGeometry x="410" y="823.5" width="59" height="23" as="geometry" />
        </mxCell>
        <mxCell id="IIdGQf1pMwcohR-izoeh-107" value="" style="shape=orEllipse;perimeter=ellipsePerimeter;whiteSpace=wrap;html=1;backgroundOutline=1;aspect=fixed;" vertex="1" parent="1">
          <mxGeometry x="370" y="826.5" width="17" height="17" as="geometry" />
        </mxCell>
        <mxCell id="IIdGQf1pMwcohR-izoeh-108" value="" style="endArrow=blockThin;html=1;rounded=0;exitX=0.5;exitY=1;exitDx=0;exitDy=0;entryX=0.5;entryY=0;entryDx=0;entryDy=0;endFill=1;endSize=2;" edge="1" parent="1" source="IIdGQf1pMwcohR-izoeh-103" target="IIdGQf1pMwcohR-izoeh-105">
          <mxGeometry width="50" height="50" relative="1" as="geometry">
            <mxPoint x="341.5" y="845" as="sourcePoint" />
            <mxPoint x="359.5" y="845" as="targetPoint" />
          </mxGeometry>
        </mxCell>
        <mxCell id="IIdGQf1pMwcohR-izoeh-109" value="" style="endArrow=blockThin;html=1;rounded=0;exitX=0.5;exitY=1;exitDx=0;exitDy=0;entryX=0.5;entryY=0;entryDx=0;entryDy=0;endFill=1;endSize=2;" edge="1" parent="1" source="IIdGQf1pMwcohR-izoeh-105" target="IIdGQf1pMwcohR-izoeh-106">
          <mxGeometry width="50" height="50" relative="1" as="geometry">
            <mxPoint x="389.5" y="845" as="sourcePoint" />
            <mxPoint x="423.5" y="845" as="targetPoint" />
          </mxGeometry>
        </mxCell>
        <mxCell id="IIdGQf1pMwcohR-izoeh-110" value="" style="edgeStyle=elbowEdgeStyle;elbow=vertical;endArrow=blockThin;html=1;curved=0;rounded=0;endSize=2;startSize=8;entryX=0.5;entryY=0;entryDx=0;entryDy=0;endFill=1;" edge="1" parent="1" target="IIdGQf1pMwcohR-izoeh-107">
          <mxGeometry width="50" height="50" relative="1" as="geometry">
            <mxPoint x="300" y="835" as="sourcePoint" />
            <mxPoint x="341.5" y="760" as="targetPoint" />
            <Array as="points">
              <mxPoint x="340" y="800" />
            </Array>
          </mxGeometry>
        </mxCell>
        <mxCell id="IIdGQf1pMwcohR-izoeh-114" value="Token &lt;b&gt;T&lt;/b&gt;&lt;sub&gt;&lt;b&gt;x&lt;/b&gt;&lt;/sub&gt;" style="text;html=1;align=center;verticalAlign=middle;resizable=0;points=[];autosize=1;strokeColor=none;fillColor=none;" vertex="1" parent="1">
          <mxGeometry x="160" y="802.5" width="70" height="30" as="geometry" />
        </mxCell>
        <mxCell id="IIdGQf1pMwcohR-izoeh-115" value="Token &lt;b&gt;T&lt;/b&gt;&lt;span style=&quot;font-size: 10px;&quot;&gt;&lt;sub&gt;&lt;b&gt;y&lt;/b&gt;&lt;/sub&gt;&lt;/span&gt;" style="text;html=1;align=center;verticalAlign=middle;resizable=0;points=[];autosize=1;strokeColor=none;fillColor=none;" vertex="1" parent="1">
          <mxGeometry x="160" y="893.8" width="70" height="30" as="geometry" />
        </mxCell>
        <mxCell id="IIdGQf1pMwcohR-izoeh-116" value="&lt;span style=&quot;font-size: 13px;&quot;&gt;Split&lt;/span&gt;" style="rounded=1;whiteSpace=wrap;html=1;rotation=-90;fillColor=#f8cecc;strokeColor=#b85450;" vertex="1" parent="1">
          <mxGeometry x="463.5" y="823.5" width="59" height="23" as="geometry" />
        </mxCell>
        <mxCell id="IIdGQf1pMwcohR-izoeh-117" value="" style="endArrow=blockThin;html=1;rounded=0;exitX=0.5;exitY=1;exitDx=0;exitDy=0;entryX=0.5;entryY=0;entryDx=0;entryDy=0;endFill=1;endSize=2;" edge="1" parent="1" source="IIdGQf1pMwcohR-izoeh-106" target="IIdGQf1pMwcohR-izoeh-116">
          <mxGeometry width="50" height="50" relative="1" as="geometry">
            <mxPoint x="473" y="845" as="sourcePoint" />
            <mxPoint x="489" y="845" as="targetPoint" />
          </mxGeometry>
        </mxCell>
        <mxCell id="IIdGQf1pMwcohR-izoeh-118" value="" style="edgeStyle=elbowEdgeStyle;endArrow=none;html=1;rounded=0;endSize=8;startSize=8;exitX=0.5;exitY=1;exitDx=0;exitDy=0;endFill=0;entryX=0.1;entryY=0.5;entryDx=0;entryDy=0;entryPerimeter=0;fillColor=#fff2cc;gradientColor=#ffd966;strokeColor=#d6b656;" edge="1" parent="1" source="IIdGQf1pMwcohR-izoeh-116" target="IIdGQf1pMwcohR-izoeh-132">
          <mxGeometry width="50" height="50" relative="1" as="geometry">
            <mxPoint x="543.5" y="840" as="sourcePoint" />
            <mxPoint x="543.5" y="780" as="targetPoint" />
            <Array as="points">
              <mxPoint x="513.5" y="810" />
            </Array>
          </mxGeometry>
        </mxCell>
        <mxCell id="IIdGQf1pMwcohR-izoeh-124" value="" style="edgeStyle=elbowEdgeStyle;endArrow=none;html=1;rounded=0;endSize=8;startSize=8;exitX=0.5;exitY=1;exitDx=0;exitDy=0;endFill=0;entryX=0.1;entryY=0.5;entryDx=0;entryDy=0;entryPerimeter=0;fillColor=#cdeb8b;strokeColor=#437bea;" edge="1" parent="1" source="IIdGQf1pMwcohR-izoeh-116" target="IIdGQf1pMwcohR-izoeh-135">
          <mxGeometry width="50" height="50" relative="1" as="geometry">
            <mxPoint x="514.5" y="845" as="sourcePoint" />
            <mxPoint x="533.5" y="880" as="targetPoint" />
            <Array as="points">
              <mxPoint x="513.5" y="860" />
            </Array>
          </mxGeometry>
        </mxCell>
        <mxCell id="IIdGQf1pMwcohR-izoeh-126" value="&lt;h6 style=&quot;line-height: 110%;&quot;&gt;&lt;font style=&quot;font-size: 11px;&quot;&gt;K&lt;/font&gt;&lt;/h6&gt;" style="rounded=1;whiteSpace=wrap;html=1;" vertex="1" parent="1">
          <mxGeometry x="536" y="747.5" width="15" height="15" as="geometry" />
        </mxCell>
        <mxCell id="IIdGQf1pMwcohR-izoeh-127" value="&lt;h6 style=&quot;line-height: 110%;&quot;&gt;&lt;span style=&quot;font-size: 11px;&quot;&gt;Q&lt;/span&gt;&lt;/h6&gt;" style="rounded=1;whiteSpace=wrap;html=1;" vertex="1" parent="1">
          <mxGeometry x="536" y="767.5" width="15" height="15" as="geometry" />
        </mxCell>
        <mxCell id="IIdGQf1pMwcohR-izoeh-128" value="&lt;h6 style=&quot;line-height: 110%;&quot;&gt;&lt;span style=&quot;font-size: 11px;&quot;&gt;V&lt;/span&gt;&lt;/h6&gt;" style="rounded=1;whiteSpace=wrap;html=1;" vertex="1" parent="1">
          <mxGeometry x="536" y="787.5" width="15" height="15" as="geometry" />
        </mxCell>
        <mxCell id="IIdGQf1pMwcohR-izoeh-129" value="&lt;h6 style=&quot;line-height: 110%;&quot;&gt;&lt;font style=&quot;font-size: 11px;&quot;&gt;K&lt;/font&gt;&lt;/h6&gt;" style="rounded=1;whiteSpace=wrap;html=1;" vertex="1" parent="1">
          <mxGeometry x="536" y="847.5" width="15" height="15" as="geometry" />
        </mxCell>
        <mxCell id="IIdGQf1pMwcohR-izoeh-130" value="&lt;h6 style=&quot;line-height: 110%;&quot;&gt;&lt;span style=&quot;font-size: 11px;&quot;&gt;Q&lt;/span&gt;&lt;/h6&gt;" style="rounded=1;whiteSpace=wrap;html=1;" vertex="1" parent="1">
          <mxGeometry x="536" y="867.5" width="15" height="15" as="geometry" />
        </mxCell>
        <mxCell id="IIdGQf1pMwcohR-izoeh-131" value="&lt;h6 style=&quot;line-height: 110%;&quot;&gt;&lt;span style=&quot;font-size: 11px;&quot;&gt;V&lt;/span&gt;&lt;/h6&gt;" style="rounded=1;whiteSpace=wrap;html=1;" vertex="1" parent="1">
          <mxGeometry x="536" y="887.5" width="15" height="15" as="geometry" />
        </mxCell>
        <mxCell id="IIdGQf1pMwcohR-izoeh-132" value="" style="shape=curlyBracket;whiteSpace=wrap;html=1;rounded=1;flipH=1;labelPosition=right;verticalLabelPosition=middle;align=left;verticalAlign=middle;rotation=-180;fillColor=#fff2cc;gradientColor=#ffd966;strokeColor=#d6b656;" vertex="1" parent="1">
          <mxGeometry x="516" y="747.5" width="20" height="55" as="geometry" />
        </mxCell>
        <mxCell id="IIdGQf1pMwcohR-izoeh-135" value="" style="shape=curlyBracket;whiteSpace=wrap;html=1;rounded=1;flipH=1;labelPosition=right;verticalLabelPosition=middle;align=left;verticalAlign=middle;rotation=-180;fillColor=#cdeb8b;strokeColor=#437bea;" vertex="1" parent="1">
          <mxGeometry x="516" y="847.5" width="20" height="55" as="geometry" />
        </mxCell>
        <mxCell id="IIdGQf1pMwcohR-izoeh-136" value="MCA" style="rounded=1;whiteSpace=wrap;html=1;rotation=-90;fillColor=#e1d5e7;strokeColor=#9673a6;" vertex="1" parent="1">
          <mxGeometry x="559.5" y="763.5" width="59" height="23" as="geometry" />
        </mxCell>
        <mxCell id="IIdGQf1pMwcohR-izoeh-137" value="MCA" style="rounded=1;whiteSpace=wrap;html=1;rotation=-90;fillColor=#e1d5e7;strokeColor=#9673a6;" vertex="1" parent="1">
          <mxGeometry x="559.5" y="863.5" width="59" height="23" as="geometry" />
        </mxCell>
        <mxCell id="IIdGQf1pMwcohR-izoeh-138" value="" style="endArrow=blockThin;html=1;rounded=0;exitX=1;exitY=0.5;exitDx=0;exitDy=0;entryX=0.5;entryY=0;entryDx=0;entryDy=0;endFill=1;strokeColor=#d6b656;endSize=2;" edge="1" parent="1" source="IIdGQf1pMwcohR-izoeh-127" target="IIdGQf1pMwcohR-izoeh-136">
          <mxGeometry width="50" height="50" relative="1" as="geometry">
            <mxPoint x="666" y="830" as="sourcePoint" />
            <mxPoint x="716" y="780" as="targetPoint" />
          </mxGeometry>
        </mxCell>
        <mxCell id="IIdGQf1pMwcohR-izoeh-139" value="" style="endArrow=blockThin;html=1;rounded=0;exitX=1;exitY=0.5;exitDx=0;exitDy=0;entryX=0.5;entryY=0;entryDx=0;entryDy=0;endFill=1;fillColor=#fff2cc;strokeColor=#d6b656;gradientColor=#ffd966;endSize=2;" edge="1" parent="1" source="IIdGQf1pMwcohR-izoeh-126" target="IIdGQf1pMwcohR-izoeh-137">
          <mxGeometry width="50" height="50" relative="1" as="geometry">
            <mxPoint x="561" y="785" as="sourcePoint" />
            <mxPoint x="588" y="785" as="targetPoint" />
          </mxGeometry>
        </mxCell>
        <mxCell id="IIdGQf1pMwcohR-izoeh-140" value="" style="endArrow=blockThin;html=1;rounded=0;exitX=1;exitY=0.5;exitDx=0;exitDy=0;entryX=0.5;entryY=0;entryDx=0;entryDy=0;endFill=1;fillColor=#fff2cc;strokeColor=#d6b656;gradientColor=#ffd966;endSize=2;" edge="1" parent="1" source="IIdGQf1pMwcohR-izoeh-128" target="IIdGQf1pMwcohR-izoeh-137">
          <mxGeometry width="50" height="50" relative="1" as="geometry">
            <mxPoint x="561" y="765" as="sourcePoint" />
            <mxPoint x="588" y="884" as="targetPoint" />
          </mxGeometry>
        </mxCell>
        <mxCell id="IIdGQf1pMwcohR-izoeh-142" value="" style="endArrow=blockThin;html=1;rounded=0;exitX=1;exitY=0.5;exitDx=0;exitDy=0;entryX=0.5;entryY=0;entryDx=0;entryDy=0;endFill=1;fillColor=#ffcccc;strokeColor=#437bea;endSize=2;" edge="1" parent="1" source="IIdGQf1pMwcohR-izoeh-129" target="IIdGQf1pMwcohR-izoeh-136">
          <mxGeometry width="50" height="50" relative="1" as="geometry">
            <mxPoint x="561" y="765" as="sourcePoint" />
            <mxPoint x="588" y="884" as="targetPoint" />
          </mxGeometry>
        </mxCell>
        <mxCell id="IIdGQf1pMwcohR-izoeh-143" value="" style="endArrow=blockThin;html=1;rounded=0;exitX=1;exitY=0.5;exitDx=0;exitDy=0;entryX=0.5;entryY=0;entryDx=0;entryDy=0;endFill=1;fillColor=#fff2cc;strokeColor=#437bea;gradientColor=#ffd966;endSize=2;" edge="1" parent="1" source="IIdGQf1pMwcohR-izoeh-131" target="IIdGQf1pMwcohR-izoeh-136">
          <mxGeometry width="50" height="50" relative="1" as="geometry">
            <mxPoint x="571" y="775" as="sourcePoint" />
            <mxPoint x="598" y="894" as="targetPoint" />
          </mxGeometry>
        </mxCell>
        <mxCell id="IIdGQf1pMwcohR-izoeh-144" value="" style="endArrow=blockThin;html=1;rounded=0;exitX=1;exitY=0.5;exitDx=0;exitDy=0;entryX=0.5;entryY=0;entryDx=0;entryDy=0;endFill=1;fillColor=#fff2cc;strokeColor=#437bea;gradientColor=#ffd966;endSize=2;" edge="1" parent="1" source="IIdGQf1pMwcohR-izoeh-130" target="IIdGQf1pMwcohR-izoeh-137">
          <mxGeometry width="50" height="50" relative="1" as="geometry">
            <mxPoint x="561" y="905" as="sourcePoint" />
            <mxPoint x="588" y="785" as="targetPoint" />
          </mxGeometry>
        </mxCell>
        <mxCell id="IIdGQf1pMwcohR-izoeh-146" value="LN" style="rounded=1;whiteSpace=wrap;html=1;rotation=-90;fillColor=#d5e8d4;strokeColor=#82b366;" vertex="1" parent="1">
          <mxGeometry x="593.5" y="763.5" width="59" height="23" as="geometry" />
        </mxCell>
        <mxCell id="IIdGQf1pMwcohR-izoeh-147" value="FFN" style="rounded=1;whiteSpace=wrap;html=1;rotation=-90;fillColor=#ffcc99;strokeColor=#36393d;" vertex="1" parent="1">
          <mxGeometry x="650.5" y="763.5" width="59" height="23" as="geometry" />
        </mxCell>
        <mxCell id="IIdGQf1pMwcohR-izoeh-148" value="LN" style="rounded=1;whiteSpace=wrap;html=1;rotation=-90;fillColor=#d5e8d4;strokeColor=#82b366;" vertex="1" parent="1">
          <mxGeometry x="685.5" y="763.5" width="59" height="23" as="geometry" />
        </mxCell>
        <mxCell id="IIdGQf1pMwcohR-izoeh-150" value="" style="endArrow=blockThin;html=1;rounded=0;exitX=0.5;exitY=1;exitDx=0;exitDy=0;entryX=0.5;entryY=0;entryDx=0;entryDy=0;endFill=1;strokeColor=#d6b656;endSize=2;" edge="1" parent="1" source="IIdGQf1pMwcohR-izoeh-136" target="IIdGQf1pMwcohR-izoeh-146">
          <mxGeometry width="50" height="50" relative="1" as="geometry">
            <mxPoint x="561.5" y="785" as="sourcePoint" />
            <mxPoint x="587.5" y="785" as="targetPoint" />
          </mxGeometry>
        </mxCell>
        <mxCell id="IIdGQf1pMwcohR-izoeh-152" value="" style="endArrow=blockThin;html=1;rounded=0;exitX=1;exitY=0.5;exitDx=0;exitDy=0;entryX=0.5;entryY=0;entryDx=0;entryDy=0;endFill=1;strokeColor=#d6b656;endSize=2;" edge="1" parent="1" source="IIdGQf1pMwcohR-izoeh-154" target="IIdGQf1pMwcohR-izoeh-147">
          <mxGeometry width="50" height="50" relative="1" as="geometry">
            <mxPoint x="610" y="785" as="sourcePoint" />
            <mxPoint x="622" y="785" as="targetPoint" />
          </mxGeometry>
        </mxCell>
        <mxCell id="IIdGQf1pMwcohR-izoeh-153" value="" style="endArrow=blockThin;html=1;rounded=0;exitX=0.5;exitY=1;exitDx=0;exitDy=0;entryX=0.5;entryY=0;entryDx=0;entryDy=0;endFill=1;strokeColor=#d6b656;endSize=2;" edge="1" parent="1" source="IIdGQf1pMwcohR-izoeh-147" target="IIdGQf1pMwcohR-izoeh-148">
          <mxGeometry width="50" height="50" relative="1" as="geometry">
            <mxPoint x="667" y="785" as="sourcePoint" />
            <mxPoint x="679" y="785" as="targetPoint" />
          </mxGeometry>
        </mxCell>
        <mxCell id="IIdGQf1pMwcohR-izoeh-155" value="" style="endArrow=none;html=1;rounded=0;exitX=0.5;exitY=1;exitDx=0;exitDy=0;entryX=0;entryY=0.5;entryDx=0;entryDy=0;endFill=0;strokeColor=#d6b656;endSize=0;" edge="1" parent="1" source="IIdGQf1pMwcohR-izoeh-146" target="IIdGQf1pMwcohR-izoeh-154">
          <mxGeometry width="50" height="50" relative="1" as="geometry">
            <mxPoint x="635" y="775" as="sourcePoint" />
            <mxPoint x="661" y="775" as="targetPoint" />
          </mxGeometry>
        </mxCell>
        <mxCell id="IIdGQf1pMwcohR-izoeh-154" value="" style="shape=orEllipse;perimeter=ellipsePerimeter;whiteSpace=wrap;html=1;backgroundOutline=1;aspect=fixed;" vertex="1" parent="1">
          <mxGeometry x="640" y="766.5" width="17" height="17" as="geometry" />
        </mxCell>
        <mxCell id="IIdGQf1pMwcohR-izoeh-156" value="LN" style="rounded=1;whiteSpace=wrap;html=1;rotation=-90;fillColor=#d5e8d4;strokeColor=#82b366;" vertex="1" parent="1">
          <mxGeometry x="593.5" y="863.5" width="59" height="23" as="geometry" />
        </mxCell>
        <mxCell id="IIdGQf1pMwcohR-izoeh-157" value="FFN" style="rounded=1;whiteSpace=wrap;html=1;rotation=-90;fillColor=#ffcc99;strokeColor=#36393d;" vertex="1" parent="1">
          <mxGeometry x="650.5" y="863.5" width="59" height="23" as="geometry" />
        </mxCell>
        <mxCell id="IIdGQf1pMwcohR-izoeh-158" value="LN" style="rounded=1;whiteSpace=wrap;html=1;rotation=-90;fillColor=#d5e8d4;strokeColor=#82b366;" vertex="1" parent="1">
          <mxGeometry x="685.5" y="863.5" width="59" height="23" as="geometry" />
        </mxCell>
        <mxCell id="IIdGQf1pMwcohR-izoeh-159" value="" style="endArrow=blockThin;html=1;rounded=0;exitX=1;exitY=0.5;exitDx=0;exitDy=0;entryX=0.5;entryY=0;entryDx=0;entryDy=0;endFill=1;strokeColor=#437bea;endSize=2;" edge="1" parent="1" source="IIdGQf1pMwcohR-izoeh-162" target="IIdGQf1pMwcohR-izoeh-157">
          <mxGeometry width="50" height="50" relative="1" as="geometry">
            <mxPoint x="610" y="885" as="sourcePoint" />
            <mxPoint x="622" y="885" as="targetPoint" />
          </mxGeometry>
        </mxCell>
        <mxCell id="IIdGQf1pMwcohR-izoeh-160" value="" style="endArrow=blockThin;html=1;rounded=0;exitX=0.5;exitY=1;exitDx=0;exitDy=0;entryX=0.5;entryY=0;entryDx=0;entryDy=0;endFill=1;strokeColor=#437beb;endSize=2;" edge="1" parent="1" source="IIdGQf1pMwcohR-izoeh-157" target="IIdGQf1pMwcohR-izoeh-158">
          <mxGeometry width="50" height="50" relative="1" as="geometry">
            <mxPoint x="667" y="885" as="sourcePoint" />
            <mxPoint x="679" y="885" as="targetPoint" />
          </mxGeometry>
        </mxCell>
        <mxCell id="IIdGQf1pMwcohR-izoeh-161" value="" style="endArrow=none;html=1;rounded=0;exitX=0.5;exitY=1;exitDx=0;exitDy=0;entryX=0;entryY=0.5;entryDx=0;entryDy=0;endFill=0;strokeColor=#437bea;endSize=0;" edge="1" parent="1" source="IIdGQf1pMwcohR-izoeh-156" target="IIdGQf1pMwcohR-izoeh-162">
          <mxGeometry width="50" height="50" relative="1" as="geometry">
            <mxPoint x="635" y="875" as="sourcePoint" />
            <mxPoint x="661" y="875" as="targetPoint" />
          </mxGeometry>
        </mxCell>
        <mxCell id="IIdGQf1pMwcohR-izoeh-162" value="" style="shape=orEllipse;perimeter=ellipsePerimeter;whiteSpace=wrap;html=1;backgroundOutline=1;aspect=fixed;" vertex="1" parent="1">
          <mxGeometry x="640" y="866.5" width="17" height="17" as="geometry" />
        </mxCell>
        <mxCell id="IIdGQf1pMwcohR-izoeh-163" value="" style="endArrow=blockThin;html=1;rounded=0;exitX=0.5;exitY=1;exitDx=0;exitDy=0;entryX=0.5;entryY=0;entryDx=0;entryDy=0;endFill=1;strokeColor=#437beb;endSize=2;" edge="1" parent="1" source="IIdGQf1pMwcohR-izoeh-137" target="IIdGQf1pMwcohR-izoeh-156">
          <mxGeometry width="50" height="50" relative="1" as="geometry">
            <mxPoint x="600" y="920" as="sourcePoint" />
            <mxPoint x="612" y="920" as="targetPoint" />
          </mxGeometry>
        </mxCell>
        <mxCell id="IIdGQf1pMwcohR-izoeh-164" value="" style="edgeStyle=elbowEdgeStyle;elbow=vertical;endArrow=blockThin;html=1;curved=0;rounded=0;endSize=2;startSize=8;entryX=0.5;entryY=0;entryDx=0;entryDy=0;strokeColor=#437bea;endFill=1;" edge="1" parent="1" target="IIdGQf1pMwcohR-izoeh-162">
          <mxGeometry width="50" height="50" relative="1" as="geometry">
            <mxPoint x="570" y="875" as="sourcePoint" />
            <mxPoint x="620" y="830" as="targetPoint" />
            <Array as="points">
              <mxPoint x="610" y="840" />
            </Array>
          </mxGeometry>
        </mxCell>
        <mxCell id="IIdGQf1pMwcohR-izoeh-165" value="" style="edgeStyle=elbowEdgeStyle;elbow=vertical;endArrow=blockThin;html=1;curved=0;rounded=0;endSize=2;startSize=8;strokeColor=#d6b656;endFill=1;entryX=0.5;entryY=0;entryDx=0;entryDy=0;" edge="1" parent="1" target="IIdGQf1pMwcohR-izoeh-154">
          <mxGeometry width="50" height="50" relative="1" as="geometry">
            <mxPoint x="570" y="775" as="sourcePoint" />
            <mxPoint x="660" y="830" as="targetPoint" />
            <Array as="points">
              <mxPoint x="600" y="740" />
            </Array>
          </mxGeometry>
        </mxCell>
        <mxCell id="IIdGQf1pMwcohR-izoeh-166" value="" style="edgeStyle=elbowEdgeStyle;elbow=vertical;endArrow=blockThin;html=1;curved=0;rounded=0;endSize=2;startSize=8;endFill=1;entryX=0.5;entryY=0;entryDx=0;entryDy=0;" edge="1" parent="1" target="IIdGQf1pMwcohR-izoeh-168">
          <mxGeometry width="50" height="50" relative="1" as="geometry">
            <mxPoint x="390" y="835" as="sourcePoint" />
            <mxPoint x="477" y="832.5" as="targetPoint" />
            <Array as="points">
              <mxPoint x="430" y="800" />
            </Array>
          </mxGeometry>
        </mxCell>
        <mxCell id="IIdGQf1pMwcohR-izoeh-168" value="" style="shape=orEllipse;perimeter=ellipsePerimeter;whiteSpace=wrap;html=1;backgroundOutline=1;aspect=fixed;" vertex="1" parent="1">
          <mxGeometry x="456" y="826.5" width="17" height="17" as="geometry" />
        </mxCell>
        <mxCell id="IIdGQf1pMwcohR-izoeh-170" value="" style="endArrow=blockThin;html=1;rounded=0;exitX=1;exitY=0.5;exitDx=0;exitDy=0;entryX=0;entryY=0.5;entryDx=0;entryDy=0;endFill=1;strokeColor=#d6b656;endSize=2;" edge="1" parent="1" source="IIdGQf1pMwcohR-izoeh-172" target="IIdGQf1pMwcohR-izoeh-186">
          <mxGeometry width="50" height="50" relative="1" as="geometry">
            <mxPoint x="702.5" y="785" as="sourcePoint" />
            <mxPoint x="755.5" y="775" as="targetPoint" />
          </mxGeometry>
        </mxCell>
        <mxCell id="IIdGQf1pMwcohR-izoeh-171" value="" style="endArrow=none;html=1;rounded=0;exitX=0.5;exitY=1;exitDx=0;exitDy=0;entryX=0;entryY=0.5;entryDx=0;entryDy=0;endFill=0;strokeColor=#d6b656;endSize=0;" edge="1" parent="1" target="IIdGQf1pMwcohR-izoeh-172" source="IIdGQf1pMwcohR-izoeh-148">
          <mxGeometry width="50" height="50" relative="1" as="geometry">
            <mxPoint x="727.5" y="775" as="sourcePoint" />
            <mxPoint x="753.5" y="775" as="targetPoint" />
          </mxGeometry>
        </mxCell>
        <mxCell id="IIdGQf1pMwcohR-izoeh-172" value="" style="shape=orEllipse;perimeter=ellipsePerimeter;whiteSpace=wrap;html=1;backgroundOutline=1;aspect=fixed;" vertex="1" parent="1">
          <mxGeometry x="732.5" y="766.5" width="17" height="17" as="geometry" />
        </mxCell>
        <mxCell id="IIdGQf1pMwcohR-izoeh-173" value="" style="edgeStyle=elbowEdgeStyle;elbow=vertical;endArrow=blockThin;html=1;curved=0;rounded=0;endSize=2;startSize=8;strokeColor=#d6b656;endFill=1;entryX=0.5;entryY=0;entryDx=0;entryDy=0;" edge="1" parent="1">
          <mxGeometry width="50" height="50" relative="1" as="geometry">
            <mxPoint x="662" y="774.5" as="sourcePoint" />
            <mxPoint x="741" y="766.5" as="targetPoint" />
            <Array as="points">
              <mxPoint x="692" y="739.5" />
            </Array>
          </mxGeometry>
        </mxCell>
        <mxCell id="IIdGQf1pMwcohR-izoeh-174" value="" style="endArrow=blockThin;html=1;rounded=0;exitX=1;exitY=0.5;exitDx=0;exitDy=0;entryX=0.5;entryY=0;entryDx=0;entryDy=0;endFill=1;strokeColor=#437bea;endSize=2;" edge="1" parent="1" source="IIdGQf1pMwcohR-izoeh-176">
          <mxGeometry width="50" height="50" relative="1" as="geometry">
            <mxPoint x="702.5" y="885" as="sourcePoint" />
            <mxPoint x="761.5" y="875" as="targetPoint" />
          </mxGeometry>
        </mxCell>
        <mxCell id="IIdGQf1pMwcohR-izoeh-175" value="" style="endArrow=none;html=1;rounded=0;exitX=0.5;exitY=1;exitDx=0;exitDy=0;entryX=0;entryY=0.5;entryDx=0;entryDy=0;endFill=0;strokeColor=#437bea;endSize=0;" edge="1" parent="1" target="IIdGQf1pMwcohR-izoeh-176" source="IIdGQf1pMwcohR-izoeh-158">
          <mxGeometry width="50" height="50" relative="1" as="geometry">
            <mxPoint x="727.5" y="875" as="sourcePoint" />
            <mxPoint x="754.5" y="874" as="targetPoint" />
          </mxGeometry>
        </mxCell>
        <mxCell id="IIdGQf1pMwcohR-izoeh-176" value="" style="shape=orEllipse;perimeter=ellipsePerimeter;whiteSpace=wrap;html=1;backgroundOutline=1;aspect=fixed;" vertex="1" parent="1">
          <mxGeometry x="732.5" y="866.5" width="17" height="17" as="geometry" />
        </mxCell>
        <mxCell id="IIdGQf1pMwcohR-izoeh-177" value="" style="edgeStyle=elbowEdgeStyle;elbow=vertical;endArrow=blockThin;html=1;curved=0;rounded=0;endSize=2;startSize=8;entryX=0.5;entryY=0;entryDx=0;entryDy=0;strokeColor=#437bea;endFill=1;" edge="1" parent="1">
          <mxGeometry width="50" height="50" relative="1" as="geometry">
            <mxPoint x="662" y="875" as="sourcePoint" />
            <mxPoint x="741" y="867" as="targetPoint" />
            <Array as="points">
              <mxPoint x="702" y="840" />
            </Array>
          </mxGeometry>
        </mxCell>
        <mxCell id="IIdGQf1pMwcohR-izoeh-178" value="" style="group;aspect=fixed;" vertex="1" connectable="0" parent="1">
          <mxGeometry x="140" y="860" width="110" height="33.8" as="geometry" />
        </mxCell>
        <mxCell id="IIdGQf1pMwcohR-izoeh-179" value="" style="rounded=0;whiteSpace=wrap;html=1;strokeColor=#393838;dashed=1;movable=1;resizable=1;rotatable=1;deletable=1;editable=1;locked=0;connectable=1;" vertex="1" parent="IIdGQf1pMwcohR-izoeh-178">
          <mxGeometry width="110" height="33.8" as="geometry" />
        </mxCell>
        <mxCell id="IIdGQf1pMwcohR-izoeh-180" value="" style="shape=cube;whiteSpace=wrap;html=1;boundedLbl=1;backgroundOutline=1;darkOpacity=0.05;darkOpacity2=0.1;rotation=90;size=20;fillColor=#f5f5f5;strokeColor=#666666;fontColor=#333333;movable=1;resizable=1;rotatable=1;deletable=1;editable=1;locked=0;connectable=1;" vertex="1" parent="IIdGQf1pMwcohR-izoeh-178">
          <mxGeometry x="8.461538461538467" y="2.9574999999999987" width="25.384615384615397" height="27.884999999999994" as="geometry" />
        </mxCell>
        <mxCell id="IIdGQf1pMwcohR-izoeh-181" value="" style="shape=cube;whiteSpace=wrap;html=1;boundedLbl=1;backgroundOutline=1;darkOpacity=0.05;darkOpacity2=0.1;rotation=90;size=20;fillColor=#f5f5f5;strokeColor=#666666;fontColor=#333333;movable=1;resizable=1;rotatable=1;deletable=1;editable=1;locked=0;connectable=1;" vertex="1" parent="IIdGQf1pMwcohR-izoeh-178">
          <mxGeometry x="25.384615384615397" y="2.9574999999999987" width="25.384615384615397" height="27.884999999999994" as="geometry" />
        </mxCell>
        <mxCell id="IIdGQf1pMwcohR-izoeh-182" value="" style="shape=cube;whiteSpace=wrap;html=1;boundedLbl=1;backgroundOutline=1;darkOpacity=0.05;darkOpacity2=0.1;rotation=90;size=20;fillColor=#f5f5f5;strokeColor=#666666;fontColor=#333333;movable=1;resizable=1;rotatable=1;deletable=1;editable=1;locked=0;connectable=1;" vertex="1" parent="IIdGQf1pMwcohR-izoeh-178">
          <mxGeometry x="59.230769230769276" y="2.9574999999999987" width="25.384615384615397" height="27.884999999999994" as="geometry" />
        </mxCell>
        <mxCell id="IIdGQf1pMwcohR-izoeh-183" value="" style="shape=cube;whiteSpace=wrap;html=1;boundedLbl=1;backgroundOutline=1;darkOpacity=0.05;darkOpacity2=0.1;rotation=90;size=20;fillColor=#f5f5f5;strokeColor=#666666;fontColor=#333333;movable=1;resizable=1;rotatable=1;deletable=1;editable=1;locked=0;connectable=1;" vertex="1" parent="IIdGQf1pMwcohR-izoeh-178">
          <mxGeometry x="76.15384615384613" y="2.9574999999999987" width="25.384615384615397" height="27.884999999999994" as="geometry" />
        </mxCell>
        <mxCell id="IIdGQf1pMwcohR-izoeh-184" value="..." style="text;html=1;align=center;verticalAlign=middle;resizable=1;points=[];autosize=1;strokeColor=none;fillColor=none;movable=1;rotatable=1;deletable=1;editable=1;locked=0;connectable=1;" vertex="1" parent="IIdGQf1pMwcohR-izoeh-178">
          <mxGeometry x="38.076923076923066" y="5.492499999999998" width="25.384615384615397" height="25.349999999999998" as="geometry" />
        </mxCell>
        <mxCell id="IIdGQf1pMwcohR-izoeh-185" value="" style="group;aspect=fixed;" vertex="1" connectable="0" parent="1">
          <mxGeometry x="758" y="758" width="110" height="33.8" as="geometry" />
        </mxCell>
        <mxCell id="IIdGQf1pMwcohR-izoeh-186" value="" style="rounded=0;whiteSpace=wrap;html=1;strokeColor=#393838;dashed=1;movable=1;resizable=1;rotatable=1;deletable=1;editable=1;locked=0;connectable=1;" vertex="1" parent="IIdGQf1pMwcohR-izoeh-185">
          <mxGeometry width="110" height="33.8" as="geometry" />
        </mxCell>
        <mxCell id="IIdGQf1pMwcohR-izoeh-187" value="" style="shape=cube;whiteSpace=wrap;html=1;boundedLbl=1;backgroundOutline=1;darkOpacity=0.05;darkOpacity2=0.1;rotation=90;size=20;fillColor=#f0a30a;strokeColor=#BD7000;movable=1;resizable=1;rotatable=1;deletable=1;editable=1;locked=0;connectable=1;fontColor=#000000;" vertex="1" parent="IIdGQf1pMwcohR-izoeh-185">
          <mxGeometry x="8.461538461538467" y="2.9574999999999987" width="25.384615384615397" height="27.884999999999994" as="geometry" />
        </mxCell>
        <mxCell id="IIdGQf1pMwcohR-izoeh-188" value="" style="shape=cube;whiteSpace=wrap;html=1;boundedLbl=1;backgroundOutline=1;darkOpacity=0.05;darkOpacity2=0.1;rotation=90;size=20;fillColor=#e3c800;strokeColor=#B09500;fontColor=#000000;movable=1;resizable=1;rotatable=1;deletable=1;editable=1;locked=0;connectable=1;" vertex="1" parent="IIdGQf1pMwcohR-izoeh-185">
          <mxGeometry x="25.384615384615397" y="2.9574999999999987" width="25.384615384615397" height="27.884999999999994" as="geometry" />
        </mxCell>
        <mxCell id="IIdGQf1pMwcohR-izoeh-189" value="" style="shape=cube;whiteSpace=wrap;html=1;boundedLbl=1;backgroundOutline=1;darkOpacity=0.05;darkOpacity2=0.1;rotation=90;size=20;fillColor=#fa6800;strokeColor=#C73500;fontColor=#000000;movable=1;resizable=1;rotatable=1;deletable=1;editable=1;locked=0;connectable=1;" vertex="1" parent="IIdGQf1pMwcohR-izoeh-185">
          <mxGeometry x="59.230769230769276" y="2.9574999999999987" width="25.384615384615397" height="27.884999999999994" as="geometry" />
        </mxCell>
        <mxCell id="IIdGQf1pMwcohR-izoeh-190" value="" style="shape=cube;whiteSpace=wrap;html=1;boundedLbl=1;backgroundOutline=1;darkOpacity=0.05;darkOpacity2=0.1;rotation=90;size=20;fillColor=#6d8764;strokeColor=#3A5431;fontColor=#ffffff;movable=1;resizable=1;rotatable=1;deletable=1;editable=1;locked=0;connectable=1;" vertex="1" parent="IIdGQf1pMwcohR-izoeh-185">
          <mxGeometry x="76.15384615384613" y="2.9574999999999987" width="25.384615384615397" height="27.884999999999994" as="geometry" />
        </mxCell>
        <mxCell id="IIdGQf1pMwcohR-izoeh-191" value="..." style="text;html=1;align=center;verticalAlign=middle;resizable=1;points=[];autosize=1;strokeColor=none;fillColor=none;movable=1;rotatable=1;deletable=1;editable=1;locked=0;connectable=1;" vertex="1" parent="IIdGQf1pMwcohR-izoeh-185">
          <mxGeometry x="38.076923076923066" y="5.492499999999998" width="25.384615384615397" height="25.349999999999998" as="geometry" />
        </mxCell>
        <mxCell id="IIdGQf1pMwcohR-izoeh-193" value="" style="group;aspect=fixed;" vertex="1" connectable="0" parent="1">
          <mxGeometry x="760" y="858" width="110" height="33.8" as="geometry" />
        </mxCell>
        <mxCell id="IIdGQf1pMwcohR-izoeh-194" value="" style="rounded=0;whiteSpace=wrap;html=1;strokeColor=#393838;dashed=1;movable=1;resizable=1;rotatable=1;deletable=1;editable=1;locked=0;connectable=1;" vertex="1" parent="IIdGQf1pMwcohR-izoeh-193">
          <mxGeometry width="110" height="33.8" as="geometry" />
        </mxCell>
        <mxCell id="IIdGQf1pMwcohR-izoeh-195" value="" style="shape=cube;whiteSpace=wrap;html=1;boundedLbl=1;backgroundOutline=1;darkOpacity=0.05;darkOpacity2=0.1;rotation=90;size=20;fillColor=#f0a30a;strokeColor=#BD7000;fontColor=#000000;movable=1;resizable=1;rotatable=1;deletable=1;editable=1;locked=0;connectable=1;" vertex="1" parent="IIdGQf1pMwcohR-izoeh-193">
          <mxGeometry x="8.461538461538467" y="2.9574999999999987" width="25.384615384615397" height="27.884999999999994" as="geometry" />
        </mxCell>
        <mxCell id="IIdGQf1pMwcohR-izoeh-196" value="" style="shape=cube;whiteSpace=wrap;html=1;boundedLbl=1;backgroundOutline=1;darkOpacity=0.05;darkOpacity2=0.1;rotation=90;size=20;fillColor=#e3c800;strokeColor=#B09500;fontColor=#000000;movable=1;resizable=1;rotatable=1;deletable=1;editable=1;locked=0;connectable=1;" vertex="1" parent="IIdGQf1pMwcohR-izoeh-193">
          <mxGeometry x="25.384615384615397" y="2.9574999999999987" width="25.384615384615397" height="27.884999999999994" as="geometry" />
        </mxCell>
        <mxCell id="IIdGQf1pMwcohR-izoeh-197" value="" style="shape=cube;whiteSpace=wrap;html=1;boundedLbl=1;backgroundOutline=1;darkOpacity=0.05;darkOpacity2=0.1;rotation=90;size=20;fillColor=#fa6800;strokeColor=#C73500;fontColor=#000000;movable=1;resizable=1;rotatable=1;deletable=1;editable=1;locked=0;connectable=1;" vertex="1" parent="IIdGQf1pMwcohR-izoeh-193">
          <mxGeometry x="59.230769230769276" y="2.9574999999999987" width="25.384615384615397" height="27.884999999999994" as="geometry" />
        </mxCell>
        <mxCell id="IIdGQf1pMwcohR-izoeh-198" value="" style="shape=cube;whiteSpace=wrap;html=1;boundedLbl=1;backgroundOutline=1;darkOpacity=0.05;darkOpacity2=0.1;rotation=90;size=20;fillColor=#6d8764;strokeColor=#3A5431;fontColor=#ffffff;movable=1;resizable=1;rotatable=1;deletable=1;editable=1;locked=0;connectable=1;" vertex="1" parent="IIdGQf1pMwcohR-izoeh-193">
          <mxGeometry x="76.15384615384613" y="2.9574999999999987" width="25.384615384615397" height="27.884999999999994" as="geometry" />
        </mxCell>
        <mxCell id="IIdGQf1pMwcohR-izoeh-199" value="..." style="text;html=1;align=center;verticalAlign=middle;resizable=1;points=[];autosize=1;strokeColor=none;fillColor=none;movable=1;rotatable=1;deletable=1;editable=1;locked=0;connectable=1;" vertex="1" parent="IIdGQf1pMwcohR-izoeh-193">
          <mxGeometry x="38.076923076923066" y="5.492499999999998" width="25.384615384615397" height="25.349999999999998" as="geometry" />
        </mxCell>
        <mxCell id="IIdGQf1pMwcohR-izoeh-200" value="Token &lt;b&gt;C&lt;sub&gt;x&lt;/sub&gt;&lt;/b&gt;" style="text;html=1;align=center;verticalAlign=middle;resizable=0;points=[];autosize=1;strokeColor=none;fillColor=none;" vertex="1" parent="1">
          <mxGeometry x="780" y="791.8" width="70" height="30" as="geometry" />
        </mxCell>
        <mxCell id="IIdGQf1pMwcohR-izoeh-201" value="Token &lt;b&gt;C&lt;span style=&quot;font-size: 10px;&quot;&gt;&lt;sub&gt;y&lt;/sub&gt;&lt;/span&gt;&lt;/b&gt;" style="text;html=1;align=center;verticalAlign=middle;resizable=0;points=[];autosize=1;strokeColor=none;fillColor=none;" vertex="1" parent="1">
          <mxGeometry x="780" y="893.8" width="70" height="30" as="geometry" />
        </mxCell>
        <mxCell id="IIdGQf1pMwcohR-izoeh-203" value="Cross-temporal Semantic Enhancement Encoder" style="text;html=1;align=center;verticalAlign=middle;resizable=0;points=[];autosize=1;strokeColor=none;fillColor=none;" vertex="1" parent="1">
          <mxGeometry x="385" y="902.5" width="280" height="30" as="geometry" />
        </mxCell>
        <mxCell id="IIdGQf1pMwcohR-izoeh-204" value="" style="edgeStyle=elbowEdgeStyle;endArrow=blockThin;html=1;rounded=0;endSize=2;startSize=8;exitX=1;exitY=0.5;exitDx=0;exitDy=0;endFill=1;entryX=0;entryY=0.5;entryDx=0;entryDy=0;strokeColor=#d6b656;" edge="1" parent="1" source="IIdGQf1pMwcohR-izoeh-186" target="IIdGQf1pMwcohR-izoeh-205">
          <mxGeometry width="50" height="50" relative="1" as="geometry">
            <mxPoint x="890" y="800" as="sourcePoint" />
            <mxPoint x="890" y="790" as="targetPoint" />
          </mxGeometry>
        </mxCell>
        <mxCell id="IIdGQf1pMwcohR-izoeh-205" value="&lt;h6 style=&quot;line-height: 110%;&quot;&gt;&lt;font style=&quot;font-size: 11px;&quot;&gt;K&lt;/font&gt;&lt;/h6&gt;" style="rounded=1;whiteSpace=wrap;html=1;" vertex="1" parent="1">
          <mxGeometry x="890" y="787.5" width="15" height="15" as="geometry" />
        </mxCell>
        <mxCell id="IIdGQf1pMwcohR-izoeh-206" value="&lt;h6 style=&quot;line-height: 110%;&quot;&gt;&lt;span style=&quot;font-size: 11px;&quot;&gt;V&lt;/span&gt;&lt;/h6&gt;" style="rounded=1;whiteSpace=wrap;html=1;" vertex="1" parent="1">
          <mxGeometry x="890" y="767.5" width="15" height="15" as="geometry" />
        </mxCell>
        <mxCell id="IIdGQf1pMwcohR-izoeh-207" value="&lt;h6 style=&quot;line-height: 110%;&quot;&gt;&lt;span style=&quot;font-size: 11px;&quot;&gt;Q&lt;/span&gt;&lt;/h6&gt;" style="rounded=1;whiteSpace=wrap;html=1;" vertex="1" parent="1">
          <mxGeometry x="890" y="748" width="15" height="15" as="geometry" />
        </mxCell>
        <mxCell id="IIdGQf1pMwcohR-izoeh-208" value="" style="endArrow=blockThin;html=1;rounded=0;exitX=1;exitY=0.5;exitDx=0;exitDy=0;entryX=0;entryY=0.5;entryDx=0;entryDy=0;endSize=2;endFill=1;strokeColor=#d6b656;" edge="1" parent="1" source="IIdGQf1pMwcohR-izoeh-186" target="IIdGQf1pMwcohR-izoeh-206">
          <mxGeometry width="50" height="50" relative="1" as="geometry">
            <mxPoint x="840" y="760" as="sourcePoint" />
            <mxPoint x="890" y="710" as="targetPoint" />
          </mxGeometry>
        </mxCell>
        <mxCell id="IIdGQf1pMwcohR-izoeh-209" value="&lt;h6 style=&quot;line-height: 110%;&quot;&gt;&lt;font style=&quot;font-size: 11px;&quot;&gt;K&lt;/font&gt;&lt;/h6&gt;" style="rounded=1;whiteSpace=wrap;html=1;" vertex="1" parent="1">
          <mxGeometry x="890" y="848.5" width="15" height="15" as="geometry" />
        </mxCell>
        <mxCell id="IIdGQf1pMwcohR-izoeh-210" value="&lt;h6 style=&quot;line-height: 110%;&quot;&gt;&lt;span style=&quot;font-size: 11px;&quot;&gt;V&lt;/span&gt;&lt;/h6&gt;" style="rounded=1;whiteSpace=wrap;html=1;" vertex="1" parent="1">
          <mxGeometry x="890" y="867.25" width="15" height="15" as="geometry" />
        </mxCell>
        <mxCell id="IIdGQf1pMwcohR-izoeh-211" value="&lt;h6 style=&quot;line-height: 110%;&quot;&gt;&lt;span style=&quot;font-size: 11px;&quot;&gt;Q&lt;/span&gt;&lt;/h6&gt;" style="rounded=1;whiteSpace=wrap;html=1;" vertex="1" parent="1">
          <mxGeometry x="890" y="886.5" width="15" height="15" as="geometry" />
        </mxCell>
        <mxCell id="IIdGQf1pMwcohR-izoeh-214" value="" style="edgeStyle=elbowEdgeStyle;endArrow=blockThin;html=1;rounded=0;endSize=2;startSize=8;exitX=1;exitY=0.5;exitDx=0;exitDy=0;endFill=1;entryX=0;entryY=0.5;entryDx=0;entryDy=0;strokeColor=#437bea;" edge="1" parent="1" source="IIdGQf1pMwcohR-izoeh-194" target="IIdGQf1pMwcohR-izoeh-209">
          <mxGeometry width="50" height="50" relative="1" as="geometry">
            <mxPoint x="870" y="873.8" as="sourcePoint" />
            <mxPoint x="892" y="893.8" as="targetPoint" />
          </mxGeometry>
        </mxCell>
        <mxCell id="IIdGQf1pMwcohR-izoeh-215" value="" style="endArrow=blockThin;html=1;rounded=0;exitX=1;exitY=0.5;exitDx=0;exitDy=0;entryX=0;entryY=0.5;entryDx=0;entryDy=0;endSize=2;endFill=1;strokeColor=#437bea;" edge="1" parent="1" source="IIdGQf1pMwcohR-izoeh-194" target="IIdGQf1pMwcohR-izoeh-210">
          <mxGeometry width="50" height="50" relative="1" as="geometry">
            <mxPoint x="870" y="873.8" as="sourcePoint" />
            <mxPoint x="892" y="873.8" as="targetPoint" />
          </mxGeometry>
        </mxCell>
        <mxCell id="IIdGQf1pMwcohR-izoeh-227" value="" style="group;aspect=fixed;" vertex="1" connectable="0" parent="1">
          <mxGeometry x="851" y="685" width="120" height="33.8" as="geometry" />
        </mxCell>
        <mxCell id="IIdGQf1pMwcohR-izoeh-228" value="" style="rounded=0;whiteSpace=wrap;html=1;strokeColor=#393838;dashed=1;movable=1;resizable=1;rotatable=1;deletable=1;editable=1;locked=0;connectable=1;" vertex="1" parent="IIdGQf1pMwcohR-izoeh-227">
          <mxGeometry x="-20" width="133" height="33.8" as="geometry" />
        </mxCell>
        <mxCell id="IIdGQf1pMwcohR-izoeh-229" value="" style="shape=cube;whiteSpace=wrap;html=1;boundedLbl=1;backgroundOutline=1;darkOpacity=0.05;darkOpacity2=0.1;rotation=90;size=20;fillColor=#f5f5f5;strokeColor=#666666;fontColor=#333333;movable=1;resizable=1;rotatable=1;deletable=1;editable=1;locked=0;connectable=1;" vertex="1" parent="IIdGQf1pMwcohR-izoeh-227">
          <mxGeometry x="14.461538461538467" y="2.9574999999999987" width="25.384615384615397" height="27.884999999999994" as="geometry" />
        </mxCell>
        <mxCell id="IIdGQf1pMwcohR-izoeh-230" value="" style="shape=cube;whiteSpace=wrap;html=1;boundedLbl=1;backgroundOutline=1;darkOpacity=0.05;darkOpacity2=0.1;rotation=90;size=20;fillColor=#f5f5f5;strokeColor=#666666;fontColor=#333333;movable=1;resizable=1;rotatable=1;deletable=1;editable=1;locked=0;connectable=1;" vertex="1" parent="IIdGQf1pMwcohR-izoeh-227">
          <mxGeometry x="28.384615384615397" y="2.9574999999999987" width="25.384615384615397" height="27.884999999999994" as="geometry" />
        </mxCell>
        <mxCell id="IIdGQf1pMwcohR-izoeh-231" value="" style="shape=cube;whiteSpace=wrap;html=1;boundedLbl=1;backgroundOutline=1;darkOpacity=0.05;darkOpacity2=0.1;rotation=90;size=20;fillColor=#f5f5f5;strokeColor=#666666;fontColor=#333333;movable=1;resizable=1;rotatable=1;deletable=1;editable=1;locked=0;connectable=1;" vertex="1" parent="IIdGQf1pMwcohR-izoeh-227">
          <mxGeometry x="55.230769230769276" y="2.9574999999999987" width="25.384615384615397" height="27.884999999999994" as="geometry" />
        </mxCell>
        <mxCell id="IIdGQf1pMwcohR-izoeh-232" value="" style="shape=cube;whiteSpace=wrap;html=1;boundedLbl=1;backgroundOutline=1;darkOpacity=0.05;darkOpacity2=0.1;rotation=90;size=20;fillColor=#f5f5f5;strokeColor=#666666;fontColor=#333333;movable=1;resizable=1;rotatable=1;deletable=1;editable=1;locked=0;connectable=1;" vertex="1" parent="IIdGQf1pMwcohR-izoeh-227">
          <mxGeometry x="69.15384615384613" y="2.9574999999999987" width="25.384615384615397" height="27.884999999999994" as="geometry" />
        </mxCell>
        <mxCell id="IIdGQf1pMwcohR-izoeh-233" value="..." style="text;html=1;align=center;verticalAlign=middle;resizable=1;points=[];autosize=1;strokeColor=none;fillColor=none;movable=1;rotatable=1;deletable=1;editable=1;locked=0;connectable=1;" vertex="1" parent="IIdGQf1pMwcohR-izoeh-227">
          <mxGeometry x="37.076923076923066" y="5.492499999999998" width="25.384615384615397" height="25.349999999999998" as="geometry" />
        </mxCell>
        <mxCell id="IIdGQf1pMwcohR-izoeh-238" value="" style="shape=cube;whiteSpace=wrap;html=1;boundedLbl=1;backgroundOutline=1;darkOpacity=0.05;darkOpacity2=0.1;rotation=90;size=20;fillColor=#f5f5f5;strokeColor=#666666;fontColor=#333333;movable=1;resizable=1;rotatable=1;deletable=1;editable=1;locked=0;connectable=1;" vertex="1" parent="IIdGQf1pMwcohR-izoeh-227">
          <mxGeometry x="-12.918461538461543" y="2.957499999999982" width="25.384615384615397" height="27.884999999999994" as="geometry" />
        </mxCell>
        <mxCell id="IIdGQf1pMwcohR-izoeh-236" value="" style="shape=cube;whiteSpace=wrap;html=1;boundedLbl=1;backgroundOutline=1;darkOpacity=0.05;darkOpacity2=0.1;rotation=90;size=20;fillColor=#f5f5f5;strokeColor=#666666;fontColor=#333333;movable=1;resizable=1;rotatable=1;deletable=1;editable=1;locked=0;connectable=1;" vertex="1" parent="IIdGQf1pMwcohR-izoeh-227">
          <mxGeometry x="1.0015384615384164" y="2.957499999999982" width="25.384615384615397" height="27.884999999999994" as="geometry" />
        </mxCell>
        <mxCell id="IIdGQf1pMwcohR-izoeh-237" value="" style="shape=cube;whiteSpace=wrap;html=1;boundedLbl=1;backgroundOutline=1;darkOpacity=0.05;darkOpacity2=0.1;rotation=90;size=20;fillColor=#f5f5f5;strokeColor=#666666;fontColor=#333333;movable=1;resizable=1;rotatable=1;deletable=1;editable=1;locked=0;connectable=1;" vertex="1" parent="IIdGQf1pMwcohR-izoeh-227">
          <mxGeometry x="82.61153846153843" y="2.957499999999982" width="25.384615384615397" height="27.884999999999994" as="geometry" />
        </mxCell>
        <mxCell id="IIdGQf1pMwcohR-izoeh-240" value="&lt;font style=&quot;font-size: 11px;&quot;&gt;Semantic Feature &lt;b&gt;&lt;i&gt;x&lt;/i&gt;&lt;/b&gt;&amp;nbsp;&lt;/font&gt;" style="text;html=1;align=center;verticalAlign=middle;resizable=0;points=[];autosize=1;strokeColor=none;fillColor=none;fontSize=7;" vertex="1" parent="1">
          <mxGeometry x="833" y="662.5" width="130" height="30" as="geometry" />
        </mxCell>
        <mxCell id="IIdGQf1pMwcohR-izoeh-241" value="" style="group;aspect=fixed;" vertex="1" connectable="0" parent="1">
          <mxGeometry x="851" y="932" width="120" height="33.8" as="geometry" />
        </mxCell>
        <mxCell id="IIdGQf1pMwcohR-izoeh-242" value="" style="rounded=0;whiteSpace=wrap;html=1;strokeColor=#393838;dashed=1;movable=1;resizable=1;rotatable=1;deletable=1;editable=1;locked=0;connectable=1;" vertex="1" parent="IIdGQf1pMwcohR-izoeh-241">
          <mxGeometry x="-20" width="133" height="33.8" as="geometry" />
        </mxCell>
        <mxCell id="IIdGQf1pMwcohR-izoeh-243" value="" style="shape=cube;whiteSpace=wrap;html=1;boundedLbl=1;backgroundOutline=1;darkOpacity=0.05;darkOpacity2=0.1;rotation=90;size=20;fillColor=#f5f5f5;strokeColor=#666666;fontColor=#333333;movable=1;resizable=1;rotatable=1;deletable=1;editable=1;locked=0;connectable=1;" vertex="1" parent="IIdGQf1pMwcohR-izoeh-241">
          <mxGeometry x="14.461538461538467" y="2.9574999999999987" width="25.384615384615397" height="27.884999999999994" as="geometry" />
        </mxCell>
        <mxCell id="IIdGQf1pMwcohR-izoeh-244" value="" style="shape=cube;whiteSpace=wrap;html=1;boundedLbl=1;backgroundOutline=1;darkOpacity=0.05;darkOpacity2=0.1;rotation=90;size=20;fillColor=#f5f5f5;strokeColor=#666666;fontColor=#333333;movable=1;resizable=1;rotatable=1;deletable=1;editable=1;locked=0;connectable=1;" vertex="1" parent="IIdGQf1pMwcohR-izoeh-241">
          <mxGeometry x="28.384615384615397" y="2.9574999999999987" width="25.384615384615397" height="27.884999999999994" as="geometry" />
        </mxCell>
        <mxCell id="IIdGQf1pMwcohR-izoeh-245" value="" style="shape=cube;whiteSpace=wrap;html=1;boundedLbl=1;backgroundOutline=1;darkOpacity=0.05;darkOpacity2=0.1;rotation=90;size=20;fillColor=#f5f5f5;strokeColor=#666666;fontColor=#333333;movable=1;resizable=1;rotatable=1;deletable=1;editable=1;locked=0;connectable=1;" vertex="1" parent="IIdGQf1pMwcohR-izoeh-241">
          <mxGeometry x="55.230769230769276" y="2.9574999999999987" width="25.384615384615397" height="27.884999999999994" as="geometry" />
        </mxCell>
        <mxCell id="IIdGQf1pMwcohR-izoeh-246" value="" style="shape=cube;whiteSpace=wrap;html=1;boundedLbl=1;backgroundOutline=1;darkOpacity=0.05;darkOpacity2=0.1;rotation=90;size=20;fillColor=#f5f5f5;strokeColor=#666666;fontColor=#333333;movable=1;resizable=1;rotatable=1;deletable=1;editable=1;locked=0;connectable=1;" vertex="1" parent="IIdGQf1pMwcohR-izoeh-241">
          <mxGeometry x="69.15384615384613" y="2.9574999999999987" width="25.384615384615397" height="27.884999999999994" as="geometry" />
        </mxCell>
        <mxCell id="IIdGQf1pMwcohR-izoeh-247" value="..." style="text;html=1;align=center;verticalAlign=middle;resizable=1;points=[];autosize=1;strokeColor=none;fillColor=none;movable=1;rotatable=1;deletable=1;editable=1;locked=0;connectable=1;" vertex="1" parent="IIdGQf1pMwcohR-izoeh-241">
          <mxGeometry x="37.076923076923066" y="5.492499999999998" width="25.384615384615397" height="25.349999999999998" as="geometry" />
        </mxCell>
        <mxCell id="IIdGQf1pMwcohR-izoeh-248" value="" style="shape=cube;whiteSpace=wrap;html=1;boundedLbl=1;backgroundOutline=1;darkOpacity=0.05;darkOpacity2=0.1;rotation=90;size=20;fillColor=#f5f5f5;strokeColor=#666666;fontColor=#333333;movable=1;resizable=1;rotatable=1;deletable=1;editable=1;locked=0;connectable=1;" vertex="1" parent="IIdGQf1pMwcohR-izoeh-241">
          <mxGeometry x="-12.918461538461543" y="2.957499999999982" width="25.384615384615397" height="27.884999999999994" as="geometry" />
        </mxCell>
        <mxCell id="IIdGQf1pMwcohR-izoeh-249" value="" style="shape=cube;whiteSpace=wrap;html=1;boundedLbl=1;backgroundOutline=1;darkOpacity=0.05;darkOpacity2=0.1;rotation=90;size=20;fillColor=#f5f5f5;strokeColor=#666666;fontColor=#333333;movable=1;resizable=1;rotatable=1;deletable=1;editable=1;locked=0;connectable=1;" vertex="1" parent="IIdGQf1pMwcohR-izoeh-241">
          <mxGeometry x="1.0015384615384164" y="2.957499999999982" width="25.384615384615397" height="27.884999999999994" as="geometry" />
        </mxCell>
        <mxCell id="IIdGQf1pMwcohR-izoeh-250" value="" style="shape=cube;whiteSpace=wrap;html=1;boundedLbl=1;backgroundOutline=1;darkOpacity=0.05;darkOpacity2=0.1;rotation=90;size=20;fillColor=#f5f5f5;strokeColor=#666666;fontColor=#333333;movable=1;resizable=1;rotatable=1;deletable=1;editable=1;locked=0;connectable=1;" vertex="1" parent="IIdGQf1pMwcohR-izoeh-241">
          <mxGeometry x="82.61153846153843" y="2.957499999999982" width="25.384615384615397" height="27.884999999999994" as="geometry" />
        </mxCell>
        <mxCell id="IIdGQf1pMwcohR-izoeh-251" value="&lt;font style=&quot;font-size: 5px;&quot;&gt;Semantic Feature &lt;b&gt;&lt;i&gt;y&lt;/i&gt;&lt;/b&gt;&amp;nbsp;&lt;/font&gt;" style="text;html=1;align=center;verticalAlign=middle;resizable=0;points=[];autosize=1;strokeColor=none;fillColor=none;fontSize=5;" vertex="1" parent="1">
          <mxGeometry x="832.5" y="958" width="130" height="30" as="geometry" />
        </mxCell>
        <mxCell id="IIdGQf1pMwcohR-izoeh-252" value="" style="endArrow=blockThin;html=1;rounded=0;exitX=0.5;exitY=1;exitDx=0;exitDy=0;entryX=0.5;entryY=0;entryDx=0;entryDy=0;endSize=2;endFill=1;strokeColor=#d6b656;" edge="1" parent="1" source="IIdGQf1pMwcohR-izoeh-228" target="IIdGQf1pMwcohR-izoeh-207">
          <mxGeometry width="50" height="50" relative="1" as="geometry">
            <mxPoint x="840" y="820" as="sourcePoint" />
            <mxPoint x="890" y="770" as="targetPoint" />
          </mxGeometry>
        </mxCell>
        <mxCell id="IIdGQf1pMwcohR-izoeh-253" value="" style="endArrow=blockThin;html=1;rounded=0;exitX=0.5;exitY=0;exitDx=0;exitDy=0;entryX=0.5;entryY=1;entryDx=0;entryDy=0;endSize=2;endFill=1;" edge="1" parent="1" source="IIdGQf1pMwcohR-izoeh-242" target="IIdGQf1pMwcohR-izoeh-211">
          <mxGeometry width="50" height="50" relative="1" as="geometry">
            <mxPoint x="910" y="920" as="sourcePoint" />
            <mxPoint x="910" y="934" as="targetPoint" />
          </mxGeometry>
        </mxCell>
        <mxCell id="IIdGQf1pMwcohR-izoeh-254" value="MCA" style="rounded=1;whiteSpace=wrap;html=1;rotation=-90;fillColor=#e1d5e7;strokeColor=#9673a6;" vertex="1" parent="1">
          <mxGeometry x="910" y="763.5" width="59" height="23" as="geometry" />
        </mxCell>
        <mxCell id="IIdGQf1pMwcohR-izoeh-255" value="LN" style="rounded=1;whiteSpace=wrap;html=1;rotation=-90;fillColor=#d5e8d4;strokeColor=#82b366;" vertex="1" parent="1">
          <mxGeometry x="944" y="763.5" width="59" height="23" as="geometry" />
        </mxCell>
        <mxCell id="IIdGQf1pMwcohR-izoeh-256" value="FFN" style="rounded=1;whiteSpace=wrap;html=1;rotation=-90;fillColor=#ffcc99;strokeColor=#36393d;" vertex="1" parent="1">
          <mxGeometry x="1001" y="763.5" width="59" height="23" as="geometry" />
        </mxCell>
        <mxCell id="IIdGQf1pMwcohR-izoeh-257" value="LN" style="rounded=1;whiteSpace=wrap;html=1;rotation=-90;fillColor=#d5e8d4;strokeColor=#82b366;" vertex="1" parent="1">
          <mxGeometry x="1036" y="763.5" width="59" height="23" as="geometry" />
        </mxCell>
        <mxCell id="IIdGQf1pMwcohR-izoeh-258" value="" style="endArrow=blockThin;html=1;rounded=0;exitX=0.5;exitY=1;exitDx=0;exitDy=0;entryX=0.5;entryY=0;entryDx=0;entryDy=0;endFill=1;strokeColor=#d6b656;endSize=2;" edge="1" parent="1" source="IIdGQf1pMwcohR-izoeh-254" target="IIdGQf1pMwcohR-izoeh-255">
          <mxGeometry width="50" height="50" relative="1" as="geometry">
            <mxPoint x="912" y="785" as="sourcePoint" />
            <mxPoint x="938" y="785" as="targetPoint" />
          </mxGeometry>
        </mxCell>
        <mxCell id="IIdGQf1pMwcohR-izoeh-259" value="" style="endArrow=blockThin;html=1;rounded=0;exitX=1;exitY=0.5;exitDx=0;exitDy=0;entryX=0.5;entryY=0;entryDx=0;entryDy=0;endFill=1;strokeColor=#d6b656;endSize=2;" edge="1" parent="1" source="IIdGQf1pMwcohR-izoeh-262" target="IIdGQf1pMwcohR-izoeh-256">
          <mxGeometry width="50" height="50" relative="1" as="geometry">
            <mxPoint x="960.5" y="785" as="sourcePoint" />
            <mxPoint x="972.5" y="785" as="targetPoint" />
          </mxGeometry>
        </mxCell>
        <mxCell id="IIdGQf1pMwcohR-izoeh-260" value="" style="endArrow=blockThin;html=1;rounded=0;exitX=0.5;exitY=1;exitDx=0;exitDy=0;entryX=0.5;entryY=0;entryDx=0;entryDy=0;endFill=1;strokeColor=#d6b656;endSize=2;" edge="1" parent="1" source="IIdGQf1pMwcohR-izoeh-256" target="IIdGQf1pMwcohR-izoeh-257">
          <mxGeometry width="50" height="50" relative="1" as="geometry">
            <mxPoint x="1017.5" y="785" as="sourcePoint" />
            <mxPoint x="1029.5" y="785" as="targetPoint" />
          </mxGeometry>
        </mxCell>
        <mxCell id="IIdGQf1pMwcohR-izoeh-261" value="" style="endArrow=none;html=1;rounded=0;exitX=0.5;exitY=1;exitDx=0;exitDy=0;entryX=0;entryY=0.5;entryDx=0;entryDy=0;endFill=0;strokeColor=#d6b656;endSize=0;" edge="1" parent="1" source="IIdGQf1pMwcohR-izoeh-255" target="IIdGQf1pMwcohR-izoeh-262">
          <mxGeometry width="50" height="50" relative="1" as="geometry">
            <mxPoint x="985.5" y="775" as="sourcePoint" />
            <mxPoint x="1011.5" y="775" as="targetPoint" />
          </mxGeometry>
        </mxCell>
        <mxCell id="IIdGQf1pMwcohR-izoeh-262" value="" style="shape=orEllipse;perimeter=ellipsePerimeter;whiteSpace=wrap;html=1;backgroundOutline=1;aspect=fixed;" vertex="1" parent="1">
          <mxGeometry x="990.5" y="766.5" width="17" height="17" as="geometry" />
        </mxCell>
        <mxCell id="IIdGQf1pMwcohR-izoeh-263" value="" style="edgeStyle=elbowEdgeStyle;elbow=vertical;endArrow=blockThin;html=1;curved=0;rounded=0;endSize=2;startSize=8;strokeColor=#d6b656;endFill=1;entryX=0.5;entryY=0;entryDx=0;entryDy=0;" edge="1" parent="1" target="IIdGQf1pMwcohR-izoeh-262">
          <mxGeometry width="50" height="50" relative="1" as="geometry">
            <mxPoint x="920.5" y="775" as="sourcePoint" />
            <mxPoint x="1010.5" y="830" as="targetPoint" />
            <Array as="points">
              <mxPoint x="950.5" y="740" />
            </Array>
          </mxGeometry>
        </mxCell>
        <mxCell id="IIdGQf1pMwcohR-izoeh-264" value="" style="endArrow=blockThin;html=1;rounded=0;exitX=1;exitY=0.5;exitDx=0;exitDy=0;entryX=0;entryY=0.5;entryDx=0;entryDy=0;endFill=1;strokeColor=#d6b656;endSize=2;" edge="1" parent="1" source="IIdGQf1pMwcohR-izoeh-266">
          <mxGeometry width="50" height="50" relative="1" as="geometry">
            <mxPoint x="1053" y="785" as="sourcePoint" />
            <mxPoint x="1108.5" y="775" as="targetPoint" />
          </mxGeometry>
        </mxCell>
        <mxCell id="IIdGQf1pMwcohR-izoeh-265" value="" style="endArrow=none;html=1;rounded=0;exitX=0.5;exitY=1;exitDx=0;exitDy=0;entryX=0;entryY=0.5;entryDx=0;entryDy=0;endFill=0;strokeColor=#d6b656;endSize=0;" edge="1" parent="1" source="IIdGQf1pMwcohR-izoeh-257" target="IIdGQf1pMwcohR-izoeh-266">
          <mxGeometry width="50" height="50" relative="1" as="geometry">
            <mxPoint x="1078" y="775" as="sourcePoint" />
            <mxPoint x="1104" y="775" as="targetPoint" />
          </mxGeometry>
        </mxCell>
        <mxCell id="IIdGQf1pMwcohR-izoeh-266" value="" style="shape=orEllipse;perimeter=ellipsePerimeter;whiteSpace=wrap;html=1;backgroundOutline=1;aspect=fixed;" vertex="1" parent="1">
          <mxGeometry x="1083" y="766.5" width="17" height="17" as="geometry" />
        </mxCell>
        <mxCell id="IIdGQf1pMwcohR-izoeh-267" value="" style="edgeStyle=elbowEdgeStyle;elbow=vertical;endArrow=blockThin;html=1;curved=0;rounded=0;endSize=2;startSize=8;strokeColor=#d6b656;endFill=1;entryX=0.5;entryY=0;entryDx=0;entryDy=0;" edge="1" parent="1">
          <mxGeometry width="50" height="50" relative="1" as="geometry">
            <mxPoint x="1012.5" y="774.5" as="sourcePoint" />
            <mxPoint x="1091.5" y="766.5" as="targetPoint" />
            <Array as="points">
              <mxPoint x="1042.5" y="739.5" />
            </Array>
          </mxGeometry>
        </mxCell>
        <mxCell id="IIdGQf1pMwcohR-izoeh-268" value="" style="endArrow=blockThin;html=1;rounded=0;exitX=1;exitY=0.5;exitDx=0;exitDy=0;entryX=0.5;entryY=0;entryDx=0;entryDy=0;endFill=1;strokeColor=#d6b656;endSize=2;" edge="1" parent="1" source="IIdGQf1pMwcohR-izoeh-206" target="IIdGQf1pMwcohR-izoeh-254">
          <mxGeometry width="50" height="50" relative="1" as="geometry">
            <mxPoint x="1052" y="786" as="sourcePoint" />
            <mxPoint x="1064" y="786" as="targetPoint" />
          </mxGeometry>
        </mxCell>
        <mxCell id="IIdGQf1pMwcohR-izoeh-271" value="" style="elbow=vertical;endArrow=none;html=1;rounded=0;endSize=2;startSize=8;strokeColor=#d6b656;endFill=0;exitX=1;exitY=0.5;exitDx=0;exitDy=0;edgeStyle=orthogonalEdgeStyle;" edge="1" parent="1" source="IIdGQf1pMwcohR-izoeh-207">
          <mxGeometry width="50" height="50" relative="1" as="geometry">
            <mxPoint x="905" y="757.5" as="sourcePoint" />
            <mxPoint x="910" y="775" as="targetPoint" />
            <Array as="points">
              <mxPoint x="910" y="755" />
            </Array>
          </mxGeometry>
        </mxCell>
        <mxCell id="IIdGQf1pMwcohR-izoeh-274" value="" style="elbow=vertical;endArrow=none;html=1;rounded=0;endSize=2;startSize=8;strokeColor=#d6b656;endFill=0;exitX=1;exitY=0.5;exitDx=0;exitDy=0;edgeStyle=orthogonalEdgeStyle;" edge="1" parent="1" source="IIdGQf1pMwcohR-izoeh-205">
          <mxGeometry width="50" height="50" relative="1" as="geometry">
            <mxPoint x="915" y="766" as="sourcePoint" />
            <mxPoint x="910" y="770" as="targetPoint" />
            <Array as="points">
              <mxPoint x="910" y="795" />
            </Array>
          </mxGeometry>
        </mxCell>
        <mxCell id="IIdGQf1pMwcohR-izoeh-275" value="MCA" style="rounded=1;whiteSpace=wrap;html=1;rotation=-90;fillColor=#e1d5e7;strokeColor=#9673a6;" vertex="1" parent="1">
          <mxGeometry x="910" y="863.3" width="59" height="23" as="geometry" />
        </mxCell>
        <mxCell id="IIdGQf1pMwcohR-izoeh-276" value="LN" style="rounded=1;whiteSpace=wrap;html=1;rotation=-90;fillColor=#d5e8d4;strokeColor=#82b366;" vertex="1" parent="1">
          <mxGeometry x="944" y="863.3" width="59" height="23" as="geometry" />
        </mxCell>
        <mxCell id="IIdGQf1pMwcohR-izoeh-277" value="FFN" style="rounded=1;whiteSpace=wrap;html=1;rotation=-90;fillColor=#ffcc99;strokeColor=#36393d;" vertex="1" parent="1">
          <mxGeometry x="1001" y="863.3" width="59" height="23" as="geometry" />
        </mxCell>
        <mxCell id="IIdGQf1pMwcohR-izoeh-278" value="LN" style="rounded=1;whiteSpace=wrap;html=1;rotation=-90;fillColor=#d5e8d4;strokeColor=#82b366;" vertex="1" parent="1">
          <mxGeometry x="1036" y="863.3" width="59" height="23" as="geometry" />
        </mxCell>
        <mxCell id="IIdGQf1pMwcohR-izoeh-279" value="" style="endArrow=blockThin;html=1;rounded=0;exitX=0.5;exitY=1;exitDx=0;exitDy=0;entryX=0.5;entryY=0;entryDx=0;entryDy=0;endFill=1;strokeColor=#437bea;endSize=2;" edge="1" parent="1" source="IIdGQf1pMwcohR-izoeh-275" target="IIdGQf1pMwcohR-izoeh-276">
          <mxGeometry width="50" height="50" relative="1" as="geometry">
            <mxPoint x="912" y="884.8" as="sourcePoint" />
            <mxPoint x="938" y="884.8" as="targetPoint" />
            <Array as="points">
              <mxPoint x="960" y="875" />
            </Array>
          </mxGeometry>
        </mxCell>
        <mxCell id="IIdGQf1pMwcohR-izoeh-280" value="" style="endArrow=blockThin;html=1;rounded=0;exitX=1;exitY=0.5;exitDx=0;exitDy=0;entryX=0.5;entryY=0;entryDx=0;entryDy=0;endFill=1;strokeColor=#437bea;endSize=2;" edge="1" parent="1" source="IIdGQf1pMwcohR-izoeh-283" target="IIdGQf1pMwcohR-izoeh-277">
          <mxGeometry width="50" height="50" relative="1" as="geometry">
            <mxPoint x="960.5" y="884.8" as="sourcePoint" />
            <mxPoint x="972.5" y="884.8" as="targetPoint" />
          </mxGeometry>
        </mxCell>
        <mxCell id="IIdGQf1pMwcohR-izoeh-281" value="" style="endArrow=blockThin;html=1;rounded=0;exitX=0.5;exitY=1;exitDx=0;exitDy=0;entryX=0.5;entryY=0;entryDx=0;entryDy=0;endFill=1;strokeColor=#437bea;endSize=2;" edge="1" parent="1" source="IIdGQf1pMwcohR-izoeh-277" target="IIdGQf1pMwcohR-izoeh-278">
          <mxGeometry width="50" height="50" relative="1" as="geometry">
            <mxPoint x="1017.5" y="884.8" as="sourcePoint" />
            <mxPoint x="1029.5" y="884.8" as="targetPoint" />
          </mxGeometry>
        </mxCell>
        <mxCell id="IIdGQf1pMwcohR-izoeh-282" value="" style="endArrow=none;html=1;rounded=0;exitX=0.5;exitY=1;exitDx=0;exitDy=0;entryX=0;entryY=0.5;entryDx=0;entryDy=0;endFill=0;strokeColor=#437bea;endSize=0;" edge="1" parent="1" source="IIdGQf1pMwcohR-izoeh-276" target="IIdGQf1pMwcohR-izoeh-283">
          <mxGeometry width="50" height="50" relative="1" as="geometry">
            <mxPoint x="985.5" y="874.8" as="sourcePoint" />
            <mxPoint x="1011.5" y="874.8" as="targetPoint" />
            <Array as="points">
              <mxPoint x="990" y="875" />
            </Array>
          </mxGeometry>
        </mxCell>
        <mxCell id="IIdGQf1pMwcohR-izoeh-283" value="" style="shape=orEllipse;perimeter=ellipsePerimeter;whiteSpace=wrap;html=1;backgroundOutline=1;aspect=fixed;" vertex="1" parent="1">
          <mxGeometry x="990.5" y="866.3" width="17" height="17" as="geometry" />
        </mxCell>
        <mxCell id="IIdGQf1pMwcohR-izoeh-284" value="" style="edgeStyle=elbowEdgeStyle;elbow=vertical;endArrow=blockThin;html=1;curved=0;rounded=0;endSize=2;startSize=8;strokeColor=#437bea;endFill=1;entryX=0.5;entryY=0;entryDx=0;entryDy=0;" edge="1" parent="1" target="IIdGQf1pMwcohR-izoeh-283">
          <mxGeometry width="50" height="50" relative="1" as="geometry">
            <mxPoint x="920.5" y="874.8" as="sourcePoint" />
            <mxPoint x="1010.5" y="929.8" as="targetPoint" />
            <Array as="points">
              <mxPoint x="950.5" y="839.8" />
            </Array>
          </mxGeometry>
        </mxCell>
        <mxCell id="IIdGQf1pMwcohR-izoeh-285" value="" style="endArrow=blockThin;html=1;rounded=0;exitX=1;exitY=0.5;exitDx=0;exitDy=0;entryX=0;entryY=0.5;entryDx=0;entryDy=0;endFill=1;strokeColor=#437be9;endSize=2;" edge="1" parent="1" source="IIdGQf1pMwcohR-izoeh-287">
          <mxGeometry width="50" height="50" relative="1" as="geometry">
            <mxPoint x="1053" y="884.8" as="sourcePoint" />
            <mxPoint x="1108.5" y="874.8" as="targetPoint" />
          </mxGeometry>
        </mxCell>
        <mxCell id="IIdGQf1pMwcohR-izoeh-286" value="" style="endArrow=none;html=1;rounded=0;exitX=0.5;exitY=1;exitDx=0;exitDy=0;entryX=0;entryY=0.5;entryDx=0;entryDy=0;endFill=0;strokeColor=#437be9;endSize=0;" edge="1" parent="1" source="IIdGQf1pMwcohR-izoeh-278" target="IIdGQf1pMwcohR-izoeh-287">
          <mxGeometry width="50" height="50" relative="1" as="geometry">
            <mxPoint x="1078" y="874.8" as="sourcePoint" />
            <mxPoint x="1104" y="874.8" as="targetPoint" />
          </mxGeometry>
        </mxCell>
        <mxCell id="IIdGQf1pMwcohR-izoeh-287" value="" style="shape=orEllipse;perimeter=ellipsePerimeter;whiteSpace=wrap;html=1;backgroundOutline=1;aspect=fixed;" vertex="1" parent="1">
          <mxGeometry x="1083" y="866.3" width="17" height="17" as="geometry" />
        </mxCell>
        <mxCell id="IIdGQf1pMwcohR-izoeh-288" value="" style="edgeStyle=elbowEdgeStyle;elbow=vertical;endArrow=blockThin;html=1;curved=0;rounded=0;endSize=2;startSize=8;strokeColor=#437bea;endFill=1;entryX=0.5;entryY=0;entryDx=0;entryDy=0;" edge="1" parent="1">
          <mxGeometry width="50" height="50" relative="1" as="geometry">
            <mxPoint x="1012.5" y="874.3" as="sourcePoint" />
            <mxPoint x="1091.5" y="866.3" as="targetPoint" />
            <Array as="points">
              <mxPoint x="1042.5" y="839.3" />
            </Array>
          </mxGeometry>
        </mxCell>
        <mxCell id="IIdGQf1pMwcohR-izoeh-289" value="" style="endArrow=blockThin;html=1;rounded=0;exitX=1;exitY=0.5;exitDx=0;exitDy=0;entryX=0.5;entryY=0;entryDx=0;entryDy=0;endFill=1;strokeColor=#437bea;endSize=2;" edge="1" parent="1" target="IIdGQf1pMwcohR-izoeh-275" source="IIdGQf1pMwcohR-izoeh-210">
          <mxGeometry width="50" height="50" relative="1" as="geometry">
            <mxPoint x="905" y="873.8" as="sourcePoint" />
            <mxPoint x="1064" y="884.8" as="targetPoint" />
          </mxGeometry>
        </mxCell>
        <mxCell id="IIdGQf1pMwcohR-izoeh-290" value="" style="elbow=vertical;endArrow=none;html=1;rounded=0;endSize=2;startSize=8;strokeColor=#437bea;endFill=0;exitX=1;exitY=0.5;exitDx=0;exitDy=0;edgeStyle=orthogonalEdgeStyle;" edge="1" parent="1" source="IIdGQf1pMwcohR-izoeh-209">
          <mxGeometry width="50" height="50" relative="1" as="geometry">
            <mxPoint x="905" y="854.8" as="sourcePoint" />
            <mxPoint x="910" y="873.8" as="targetPoint" />
            <Array as="points">
              <mxPoint x="910" y="856" />
            </Array>
          </mxGeometry>
        </mxCell>
        <mxCell id="IIdGQf1pMwcohR-izoeh-291" value="" style="elbow=vertical;endArrow=none;html=1;rounded=0;endSize=2;startSize=8;strokeColor=#437bea;endFill=0;exitX=1;exitY=0.5;exitDx=0;exitDy=0;edgeStyle=orthogonalEdgeStyle;" edge="1" parent="1" source="IIdGQf1pMwcohR-izoeh-211">
          <mxGeometry width="50" height="50" relative="1" as="geometry">
            <mxPoint x="905" y="893.8" as="sourcePoint" />
            <mxPoint x="910" y="869" as="targetPoint" />
            <Array as="points">
              <mxPoint x="910" y="894" />
            </Array>
          </mxGeometry>
        </mxCell>
        <mxCell id="IIdGQf1pMwcohR-izoeh-292" value="" style="shape=cube;whiteSpace=wrap;html=1;boundedLbl=1;backgroundOutline=1;darkOpacity=0.05;darkOpacity2=0.1;size=10;fillColor=#aecdf9;strokeColor=#6c8ebf;" vertex="1" parent="1">
          <mxGeometry x="1110" y="839.75" width="80" height="70" as="geometry" />
        </mxCell>
        <mxCell id="IIdGQf1pMwcohR-izoeh-293" value="&lt;font style=&quot;font-size: 11px;&quot;&gt;semantic &lt;br&gt;feature &lt;b&gt;&lt;i&gt;y&lt;/i&gt;&lt;/b&gt;&lt;i&gt;&lt;b&gt;&lt;sub&gt;e&lt;/sub&gt;&lt;/b&gt;&lt;/i&gt;&amp;nbsp;&lt;/font&gt;" style="text;html=1;align=center;verticalAlign=middle;resizable=0;points=[];autosize=1;strokeColor=none;fillColor=none;fontSize=7;" vertex="1" parent="1">
          <mxGeometry x="1115" y="853.25" width="80" height="50" as="geometry" />
        </mxCell>
        <mxCell id="IIdGQf1pMwcohR-izoeh-298" value="" style="shape=cube;whiteSpace=wrap;html=1;boundedLbl=1;backgroundOutline=1;darkOpacity=0.05;darkOpacity2=0.1;size=10;fillColor=#aecdf9;strokeColor=#6c8ebf;" vertex="1" parent="1">
          <mxGeometry x="1109" y="739" width="80" height="70" as="geometry" />
        </mxCell>
        <mxCell id="IIdGQf1pMwcohR-izoeh-299" value="&lt;font style=&quot;font-size: 11px;&quot;&gt;semantic &lt;br&gt;feature &lt;i&gt;&lt;b&gt;x&lt;sub&gt;e&lt;/sub&gt;&lt;/b&gt;&lt;/i&gt;&amp;nbsp;&lt;/font&gt;" style="text;html=1;align=center;verticalAlign=middle;resizable=0;points=[];autosize=1;strokeColor=none;fillColor=none;fontSize=7;" vertex="1" parent="1">
          <mxGeometry x="1114" y="752.5" width="80" height="50" as="geometry" />
        </mxCell>
        <mxCell id="IIdGQf1pMwcohR-izoeh-301" value="&lt;span style=&quot;color: rgb(0, 0, 0); font-family: Helvetica; font-size: 12px; font-style: normal; font-variant-ligatures: normal; font-variant-caps: normal; font-weight: 400; letter-spacing: normal; orphans: 2; text-align: center; text-indent: 0px; text-transform: none; widows: 2; word-spacing: 0px; -webkit-text-stroke-width: 0px; background-color: rgb(251, 251, 251); text-decoration-thickness: initial; text-decoration-style: initial; text-decoration-color: initial; float: none; display: inline !important;&quot;&gt;Transformer&amp;nbsp;&lt;/span&gt;&lt;span style=&quot;color: rgb(0, 0, 0); font-family: Helvetica; font-size: 12px; font-style: normal; font-variant-ligatures: normal; font-variant-caps: normal; font-weight: 400; letter-spacing: normal; orphans: 2; text-align: center; text-indent: 0px; text-transform: none; widows: 2; word-spacing: 0px; -webkit-text-stroke-width: 0px; background-color: rgb(251, 251, 251); text-decoration-thickness: initial; text-decoration-style: initial; text-decoration-color: initial; float: none; display: inline !important;&quot;&gt;Decoder&lt;/span&gt;" style="text;whiteSpace=wrap;html=1;" vertex="1" parent="1">
          <mxGeometry x="947" y="905.25" width="120" height="30" as="geometry" />
        </mxCell>
      </root>
    </mxGraphModel>
  </diagram>
</mxfile>
